<svg width="20" height="20" viewBox="0 0 20 20" fill="none" xmlns="http://www.w3.org/2000/svg">
<path fill-rule="evenodd" clip-rule="evenodd" d="M9.99591 10.2331C8.01727 10.2331 6.37399 8.66211 6.37399 6.80263C6.37399 4.87904 8.01727 3.30811 9.99591 3.30811C12.0416 3.30811 13.6178 4.87904 13.6178 6.80263C13.6178 8.66211 12.0416 10.2331 9.99591 10.2331ZM9.99591 5.32788C9.15752 5.32788 8.52031 6.00114 8.52031 6.80264C8.52031 7.60413 9.15752 8.21325 9.99591 8.21325C10.8679 8.21325 11.4715 7.60413 11.4715 6.80264C11.4715 6.00114 10.8679 5.32788 9.99591 5.32788ZM11.438 13.0864L13.4837 14.9779C13.8861 15.3947 13.8861 16.0038 13.4837 16.3885C13.0477 16.8053 12.377 16.8053 12.0416 16.3885L9.99591 14.465L8.01727 16.3885C7.81606 16.5809 7.54777 16.6771 7.24593 16.6771C7.01118 16.6771 6.74289 16.5809 6.50814 16.3885C6.1057 16.0038 6.1057 15.3947 6.50814 14.9779L8.58737 13.0864C7.81606 12.862 7.11179 12.5734 6.44107 12.1887C5.93802 11.9322 5.83741 11.291 6.1057 10.8101C6.44107 10.3292 7.04472 10.201 7.5813 10.5216C9.0569 11.3872 10.9349 11.3872 12.4105 10.5216C12.9471 10.201 13.5843 10.3292 13.8861 10.8101C14.188 11.291 14.0538 11.9322 13.5843 12.1887C12.9471 12.5734 12.2093 12.862 11.438 13.0864Z" fill="currentColor"/>
</svg>
