<svg width="20" height="20" viewBox="0 0 20 20" fill="none" xmlns="http://www.w3.org/2000/svg">
  <path
    d="M6.34409 11.3284L3.09115 10.2686C3.09115 10.2686 2.70239 10.1108 2.82757 9.75317C2.85334 9.67942 2.90532 9.61666 3.06083 9.50881C3.78159 9.00641 16.4016 4.47045 16.4016 4.47045C16.4016 4.47045 16.7579 4.35038 16.9681 4.43024C17.02 4.44633 17.0668 4.47595 17.1036 4.51606C17.1404 4.55616 17.1659 4.60532 17.1774 4.6585C17.2001 4.75243 17.2096 4.84907 17.2057 4.94563C17.2047 5.02916 17.1945 5.10658 17.1869 5.22798C17.11 6.46813 14.8099 15.7238 14.8099 15.7238C14.8099 15.7238 14.6723 16.2654 14.1792 16.2839C14.058 16.2878 13.9373 16.2673 13.8242 16.2236C13.7112 16.1798 13.6081 16.1138 13.5211 16.0293C12.5535 15.1971 9.20926 12.9496 8.47028 12.4553C8.45361 12.4439 8.43958 12.4291 8.42911 12.4119C8.41865 12.3946 8.41201 12.3754 8.40964 12.3553C8.3993 12.3032 8.45595 12.2387 8.45595 12.2387C8.45595 12.2387 14.2792 7.0626 14.4341 6.51923C14.4461 6.47713 14.4008 6.45636 14.3399 6.4748C13.9532 6.61708 7.24846 10.8511 6.50848 11.3184C6.45521 11.3346 6.39891 11.338 6.34409 11.3284Z"
    fill="currentColor" />
</svg>