<svg width="20" height="22" viewBox="0 0 20 22" fill="none" xmlns="http://www.w3.org/2000/svg">
<path d="M10.6224 15.8209C6.24522 15.8209 3.74856 12.52 3.64453 7.02734H5.83711C5.90913 11.0588 7.52556 12.7665 8.80589 13.1186V7.02734H10.8704V10.5043C12.1348 10.3546 13.4631 8.7702 13.9112 7.02734H15.9758C15.8069 7.93124 15.4703 8.78709 14.987 9.54135C14.5037 10.2956 13.8842 10.9321 13.167 11.4109C13.9675 11.8484 14.6745 12.4677 15.2415 13.2279C15.8084 13.988 16.2223 14.8718 16.4559 15.8209H14.1833C13.9736 14.9965 13.5474 14.2586 12.958 13.6996C12.3687 13.1406 11.6425 12.7854 10.8704 12.6784V15.8209H10.6224Z" fill="currentColor"/>
</svg>
