<svg width="256" height="51" viewBox="0 0 256 51" fill="none" xmlns="http://www.w3.org/2000/svg">
<g clip-path="url(#clip0_187_10976)">
<path d="M203.335 50.2014H197.924C197.92 50.2014 197.917 50.2007 197.913 50.1993C197.91 50.1979 197.907 50.1959 197.904 50.1934C197.902 50.1909 197.9 50.1879 197.899 50.1845C197.897 50.1812 197.896 50.1777 197.896 50.1741L197.928 0.548666C197.928 0.541425 197.931 0.53448 197.936 0.529359C197.941 0.524239 197.948 0.521362 197.955 0.521362H206.347C206.351 0.52139 206.354 0.52216 206.358 0.523626C206.361 0.525092 206.364 0.527224 206.367 0.529895L250.009 45.7867C250.013 45.7906 250.018 45.7933 250.023 45.7944C250.028 45.7956 250.034 45.7951 250.039 45.7931C250.044 45.7911 250.048 45.7876 250.051 45.7831C250.054 45.7787 250.056 45.7734 250.056 45.7679V0.548666C250.056 0.541425 250.059 0.53448 250.064 0.529359C250.069 0.524239 250.076 0.521362 250.083 0.521362H255.468C255.475 0.521362 255.482 0.524239 255.487 0.529359C255.493 0.53448 255.495 0.541425 255.495 0.548666V50.1741C255.495 50.1777 255.495 50.1812 255.493 50.1845C255.492 50.1879 255.49 50.1909 255.487 50.1934C255.485 50.1959 255.482 50.1979 255.479 50.1993C255.475 50.2007 255.472 50.2014 255.468 50.2014H247.167C247.163 50.2014 247.16 50.2006 247.156 50.1991C247.153 50.1977 247.15 50.1955 247.147 50.1929L203.409 4.96761C203.406 4.96371 203.401 4.96103 203.395 4.95989C203.39 4.95876 203.385 4.95923 203.38 4.96124C203.374 4.96325 203.37 4.96672 203.367 4.9712C203.364 4.97567 203.362 4.98096 203.362 4.98638V50.1741C203.362 50.1777 203.362 50.1812 203.36 50.1845C203.359 50.1879 203.357 50.1909 203.354 50.1934C203.352 50.1959 203.349 50.1979 203.346 50.1993C203.342 50.2007 203.339 50.2014 203.335 50.2014Z" fill="#010103"/>
<path d="M53.644 25.4634C56.0967 27.4816 57.504 30.0465 57.8658 33.158C57.9147 33.5755 57.9375 34.1435 57.9341 34.8619C57.9278 36.0507 57.9247 37.2387 57.9247 38.4259C57.9247 39.1739 57.9031 39.7419 57.8598 40.1298C57.2481 45.5769 52.7651 49.6938 47.4306 50.268C47.0353 50.3107 46.4673 50.3317 45.7267 50.3312C30.6659 50.3226 15.6053 50.3275 0.544985 50.3457C0.51825 50.3457 0.504883 50.3326 0.504883 50.3064V0.587142C0.504883 0.5587 0.519104 0.544479 0.547545 0.544479C15.6715 0.541066 30.7933 0.540782 45.9127 0.543626C46.6147 0.543626 47.1821 0.57093 47.615 0.625537C52.9332 1.29704 57.2523 5.36444 57.8598 10.7621C57.9048 11.1608 57.9272 11.7291 57.9272 12.4668C57.9278 13.6187 57.9284 14.7706 57.9289 15.9225C57.9289 16.6932 57.911 17.2615 57.8752 17.6272C57.574 20.7228 56.0416 23.4318 53.644 25.4003C53.6184 25.4213 53.6184 25.4424 53.644 25.4634ZM52.574 12.1682C52.5544 8.98731 50.3684 6.36615 47.2182 5.85165C46.8843 5.79704 46.3294 5.76973 45.5535 5.76973C32.3664 5.76746 19.1778 5.76746 5.98782 5.76973C5.95881 5.76973 5.9443 5.78424 5.9443 5.81325V22.8107C5.9443 22.8374 5.95795 22.8508 5.98526 22.8508C11.3988 22.8599 15.1892 22.8605 17.3564 22.8525C17.7788 22.8508 18.2779 22.7911 18.7225 22.7911C27.6667 22.7911 36.6113 22.7911 45.5561 22.7911C46.3206 22.7911 46.8877 22.7598 47.2574 22.6972C50.2327 22.1895 52.5586 19.6443 52.5697 16.5837C52.5771 14.421 52.5785 12.9492 52.574 12.1682ZM52.4733 33.1981C51.8854 30.5965 49.9486 28.6298 47.2873 28.1682C46.9523 28.1102 46.4506 28.0812 45.7822 28.0812C32.508 28.0812 19.2364 28.0812 5.96734 28.0812C5.95198 28.0812 5.9443 28.0888 5.9443 28.1042V45.059C5.9443 45.0874 5.95852 45.1016 5.98696 45.1016C19.1343 45.1045 32.2813 45.1048 45.4281 45.1025C46.2199 45.1025 46.7873 45.0763 47.1303 45.024C50.1935 44.5607 52.5595 41.9805 52.5706 38.8542C52.5757 37.3679 52.5692 35.8815 52.551 34.3952C52.5436 33.7945 52.5177 33.3954 52.4733 33.1981Z" fill="#010103"/>
<path d="M177.297 50.0735H144.914C141.571 50.0735 138.365 48.7454 136.001 46.3814C133.637 44.0173 132.309 40.811 132.309 37.4677V13.2766C132.309 9.93334 133.637 6.72701 136.001 4.36296C138.365 1.99891 141.571 0.670807 144.914 0.670807H177.297C180.64 0.670807 183.846 1.99891 186.21 4.36296C188.574 6.72701 189.902 9.93334 189.902 13.2766V37.4677C189.902 40.811 188.574 44.0173 186.21 46.3814C183.846 48.7454 180.64 50.0735 177.297 50.0735ZM184.379 13.286C184.379 11.3998 183.63 9.59093 182.296 8.25721C180.963 6.92349 179.154 6.17422 177.268 6.17422H144.925C143.038 6.17422 141.23 6.92349 139.896 8.25721C138.562 9.59093 137.813 11.3998 137.813 13.286V37.4584C137.813 39.3445 138.562 41.1534 139.896 42.4871C141.23 43.8209 143.038 44.5701 144.925 44.5701H177.268C179.154 44.5701 180.963 43.8209 182.296 42.4871C183.63 41.1534 184.379 39.3445 184.379 37.4584V13.286Z" fill="#010103"/>
<path d="M118.244 48.3405C116.161 49.7529 113.917 50.4588 111.512 50.4583C100.191 50.456 88.8715 50.4563 77.5524 50.4591C76.8152 50.4597 76.2472 50.4403 75.8485 50.4011C70.1906 49.8473 65.6829 45.5282 65.0183 39.8525C64.9699 39.4401 64.9463 38.8727 64.9474 38.1502C64.9492 36.7987 64.9466 35.4472 64.9398 34.0956C64.9364 33.3948 64.9611 32.8271 65.014 32.3926C65.6949 26.7808 70.037 22.3712 75.6983 21.7868C76.0919 21.7464 76.6602 21.7262 77.4031 21.7262C88.5168 21.7239 99.6303 21.7236 110.744 21.7253C111.535 21.7253 112.104 21.7398 112.448 21.7688C114.544 21.9452 116.468 22.6298 118.22 23.8226C118.225 23.8265 118.232 23.8287 118.239 23.829C118.246 23.8293 118.253 23.8278 118.259 23.8244C118.265 23.8211 118.271 23.8161 118.274 23.8101C118.278 23.8041 118.279 23.7972 118.279 23.7902C118.258 20.2407 118.248 16.7023 118.249 13.175C118.25 12.4526 118.212 11.8983 118.135 11.512C117.622 8.92413 115.563 6.88488 112.984 6.37464C112.597 6.29785 112.054 6.25946 111.354 6.25946C100.137 6.26003 88.9199 6.25974 77.7026 6.2586C75.2657 6.25775 72.8288 6.20997 70.3886 6.21765C70.382 6.21765 70.3757 6.21513 70.3711 6.21065C70.3664 6.20617 70.3638 6.20009 70.3638 6.19376V0.861845C70.3638 0.830559 70.3795 0.815201 70.4108 0.81577C71.4278 0.833688 72.5712 0.799558 73.4568 0.799558C86.1275 0.798989 98.7978 0.79842 111.468 0.797852C112.175 0.797852 112.743 0.824586 113.171 0.878056C118.643 1.5615 122.941 5.81236 123.632 11.2979C123.685 11.7222 123.712 12.2893 123.712 12.9992C123.713 25.4708 123.713 37.9423 123.712 50.4139C123.712 50.4429 123.697 50.4574 123.668 50.4574H118.337C118.309 50.4574 118.295 50.4432 118.295 50.4147V48.367C118.295 48.3266 118.278 48.3178 118.244 48.3405ZM70.508 39.5863C71.0985 42.7603 73.7802 44.9975 76.9978 44.9975C88.2395 44.9975 99.4813 44.9969 110.723 44.9958C111.501 44.9958 112.068 44.9688 112.424 44.9147C115.129 44.5043 117.337 42.4216 117.862 39.7202C117.937 39.3328 117.975 38.7669 117.975 38.0223C117.975 36.6946 117.975 35.367 117.975 34.0393C117.974 33.3658 117.936 32.8382 117.86 32.4566C117.332 29.7996 115.191 27.7142 112.509 27.2748C112.149 27.2157 111.582 27.1861 110.808 27.1861C99.7722 27.1849 88.7373 27.1847 77.7026 27.1852C76.9096 27.1852 76.3419 27.2103 75.9995 27.2603C73.2128 27.6639 70.9619 29.8439 70.4961 32.6289C70.4346 32.9952 70.4048 33.5624 70.4065 34.3303C70.4088 35.5624 70.4079 36.7939 70.4039 38.0248C70.4017 38.6818 70.4364 39.2023 70.508 39.5863Z" fill="#010103"/>
</g>
<defs>
<clipPath id="clip0_187_10976">
<rect width="255.119" height="50" fill="white" transform="translate(0.44043 0.5)"/>
</clipPath>
</defs>
</svg>
