<svg width="334" height="53" viewBox="0 0 334 53" fill="none" xmlns="http://www.w3.org/2000/svg">
<g clip-path="url(#clip0_187_11001)">
<path d="M129.458 44.1484C125.685 44.1243 121.912 44.1228 118.138 44.1439C117.945 44.1454 117.813 44.1823 117.743 44.2547C112.984 49.1947 106.733 51.8851 99.9067 52.4277C90.9094 53.1444 80.8012 47.9489 76.0771 40.3253C71.5025 32.939 70.6194 23.4863 74.4051 15.5529C75.9092 12.399 78.4483 9.22701 81.1945 6.88701C88.2629 0.864049 96.571 -0.842906 106.119 1.76614C109.021 2.55895 111.685 3.83709 114.109 5.60057C115.805 6.8335 117.372 8.16741 118.81 9.60231C118.858 9.64959 118.889 9.71113 118.897 9.77737C118.906 9.84361 118.892 9.91083 118.858 9.96857L112.333 21.1373C112.28 21.2292 112.221 21.2322 112.156 21.1463C111.409 20.1561 110.684 19.3218 109.723 18.4581C108.952 17.764 108.173 16.9886 107.414 16.4098C104.355 14.0766 100.362 12.5482 96.4936 13.0501C91.3671 13.7171 87.3261 17.2847 85.6609 22.0936C83.2437 29.0594 86.9696 36.6966 93.8188 39.4435C98.8717 41.467 105.111 39.0773 108.561 35.2315C109.224 34.4945 110.069 33.242 111.096 31.474C116.846 21.5804 122.603 11.6921 128.368 1.80909C128.408 1.73976 128.469 1.70509 128.55 1.70509H141.487C141.515 1.70509 141.541 1.71557 141.56 1.73423C141.58 1.75288 141.591 1.77818 141.591 1.80457L141.588 51.2068C141.588 51.3184 141.532 51.3741 141.418 51.3741L129.709 51.3764C129.637 51.3764 129.601 51.341 129.601 51.2701L129.606 44.2954C129.606 44.1989 129.557 44.1499 129.458 44.1484ZM123.168 33.6738C123.161 33.6854 123.158 33.6986 123.158 33.712C123.158 33.7254 123.161 33.7386 123.168 33.7502C123.175 33.7619 123.184 33.7716 123.196 33.7784C123.208 33.7852 123.221 33.7889 123.235 33.7891H129.5C129.521 33.7891 129.541 33.781 129.555 33.7666C129.57 33.7522 129.578 33.7326 129.578 33.7122L129.576 22.7922C129.576 22.7749 129.571 22.7579 129.56 22.744C129.55 22.7301 129.535 22.7201 129.518 22.7156C129.501 22.7112 129.483 22.7125 129.466 22.7194C129.45 22.7264 129.437 22.7385 129.429 22.7538L123.168 33.6738Z" fill="#3374B0"/>
<path d="M289.987 34.9873C289.986 34.9746 289.981 34.9625 289.972 34.9531C289.963 34.9436 289.952 34.9374 289.939 34.9353C289.926 34.9332 289.913 34.9354 289.902 34.9415C289.89 34.9477 289.882 34.9574 289.877 34.9692C286.003 46.1786 275.387 53.1104 263.379 52.5294C257.453 52.243 252.237 50.2376 247.733 46.5132C247.65 46.4454 247.608 46.465 247.608 46.572L247.601 51.5527C247.601 51.5663 247.599 51.5798 247.593 51.5925C247.588 51.6051 247.58 51.6165 247.57 51.6262C247.561 51.6359 247.549 51.6435 247.536 51.6487C247.523 51.654 247.51 51.6567 247.496 51.6567H220.66C220.57 51.6567 220.524 51.6122 220.524 51.5233V2.0351C220.524 1.95371 220.566 1.91301 220.649 1.91301H232.788C232.881 1.91301 232.928 1.95898 232.928 2.05092V40.5332C232.928 40.6417 232.983 40.696 233.094 40.696L242.454 40.6982C242.469 40.6984 242.483 40.6948 242.495 40.6877C242.507 40.6806 242.517 40.6704 242.524 40.658C242.531 40.6455 242.535 40.6314 242.535 40.6171C242.535 40.6027 242.531 40.5886 242.523 40.5761C239.816 36.285 238.616 31.5779 238.554 26.5633C238.402 14.3681 247.337 3.81666 259.517 1.51057C272.781 -0.998991 285.231 6.08205 289.883 18.4694C289.887 18.4816 289.895 18.4921 289.906 18.4988C289.917 18.5055 289.931 18.508 289.943 18.5057C289.956 18.5035 289.968 18.4967 289.976 18.4867C289.984 18.4766 289.988 18.464 289.987 18.4513L289.985 2.0351C289.985 1.95371 290.026 1.91301 290.109 1.91301H301.139C301.23 1.91301 301.3 1.94993 301.351 2.02379L319.957 29.3826C319.969 29.3991 319.985 29.4115 320.004 29.4182C320.023 29.4248 320.044 29.4252 320.063 29.4194C320.082 29.4136 320.099 29.4018 320.111 29.3858C320.123 29.3698 320.13 29.3505 320.13 29.3306V2.02605C320.13 1.95069 320.168 1.91301 320.245 1.91301H332.51C332.545 1.91301 332.578 1.92683 332.603 1.95142C332.628 1.97601 332.641 2.00936 332.641 2.04414V51.4916C332.641 51.5354 332.623 51.5774 332.592 51.6083C332.56 51.6393 332.516 51.6567 332.471 51.6567H321.747C321.681 51.6567 321.63 51.6303 321.595 51.5775L302.639 24.0831C302.629 24.0696 302.616 24.0595 302.6 24.0541C302.584 24.0487 302.567 24.0484 302.552 24.0532C302.536 24.058 302.522 24.0676 302.512 24.0807C302.502 24.0938 302.496 24.1097 302.496 24.1261L302.499 51.5187C302.499 51.6122 302.451 51.6589 302.356 51.6589L290.111 51.6567C290.027 51.6567 289.985 51.616 289.985 51.5346L289.987 34.9873ZM268.31 13.7193C263.577 12.4848 258.381 14.0607 255.108 17.4339C250.019 22.6814 250.391 30.868 255.235 35.9527C263.246 44.3676 276.576 39.7419 278.133 28.5189C279.067 21.7861 275.053 15.4782 268.31 13.7193Z" fill="#3374B0"/>
<path d="M44.0824 21.3656V1.89273C44.0824 1.86809 44.0873 1.84369 44.0969 1.82092C44.1065 1.79816 44.1206 1.77747 44.1383 1.76004C44.156 1.74262 44.1771 1.7288 44.2002 1.71937C44.2234 1.70994 44.2482 1.70508 44.2733 1.70508H71.8609C71.9315 1.70508 71.9667 1.73975 71.9667 1.80908V12.5279C71.9667 12.5957 71.9322 12.6296 71.8632 12.6296L56.5503 12.6273C56.4522 12.6273 56.4031 12.6756 56.4031 12.772L56.4077 20.5472C56.4077 20.6994 56.4851 20.7755 56.64 20.7755H69.7795C69.8669 20.7755 69.9106 20.8177 69.9106 20.9021L69.8945 31.3044C69.8945 31.3782 69.8569 31.4152 69.7818 31.4152L56.5664 31.4174C56.5453 31.4174 56.5243 31.4216 56.5048 31.4296C56.4853 31.4377 56.4675 31.4495 56.4526 31.4644C56.4376 31.4793 56.4257 31.497 56.4177 31.5165C56.4096 31.536 56.4054 31.5569 56.4054 31.578L56.4077 40.5265C56.4077 40.5822 56.4305 40.6357 56.471 40.6752C56.5116 40.7146 56.5666 40.7367 56.6239 40.7367L71.8448 40.7299C71.9261 40.7299 71.9667 40.7699 71.9667 40.8498L71.9644 51.2588C71.9644 51.3357 71.9261 51.3741 71.8494 51.3741H44.1974C44.1669 51.3741 44.1376 51.362 44.116 51.3403C44.0945 51.3187 44.0824 51.2894 44.0824 51.2588V32.7717C44.0824 31.7437 43.9957 31.7362 43.8225 32.7491C42.224 42.1068 34.5791 50.3726 24.5859 51.399C22.9759 51.5633 21.5584 51.6477 20.3333 51.6522C13.6803 51.6703 7.02741 51.6688 0.37448 51.6477C0.294749 51.6477 0.254883 51.6085 0.254883 51.5301L0.257183 2.03743C0.257183 1.96659 0.293216 1.93117 0.36528 1.93117C8.24791 1.89047 14.6157 1.89424 19.4685 1.94247C22.3204 1.9696 25.5771 2.26804 28.2404 3.02995C36.9802 5.53047 42.5437 12.6771 43.9375 21.3679C43.9436 21.3995 43.9605 21.4206 43.9881 21.4312C44.0509 21.4538 44.0824 21.4319 44.0824 21.3656ZM29.6066 36.0025C31.2787 33.6127 31.9295 30.382 31.9778 27.4044C32.0238 24.4924 31.6581 21.5103 30.3265 18.9872C26.7915 12.2859 19.4363 12.4939 12.9045 12.607C12.8324 12.6085 12.7964 12.6439 12.7964 12.7133L12.7941 40.6259C12.7941 40.7028 12.8332 40.7413 12.9114 40.7413C18.7164 40.8204 25.8646 41.3562 29.6066 36.0025Z" fill="#3374B0"/>
<path d="M153.43 13.4435H144.086C144.061 13.4435 144.037 13.4337 144.019 13.4163C144.001 13.399 143.992 13.3754 143.992 13.3508L143.989 2.00575C143.989 1.98117 143.999 1.95759 144.017 1.94021C144.035 1.92282 144.059 1.91306 144.084 1.91306H175.636C175.661 1.91306 175.685 1.92282 175.703 1.94021C175.721 1.95759 175.731 1.98117 175.731 2.00575L175.721 13.3508C175.721 13.3754 175.711 13.399 175.694 13.4163C175.676 13.4337 175.652 13.4435 175.627 13.4435H166.08C166.068 13.4435 166.055 13.4459 166.044 13.4505C166.033 13.4552 166.022 13.462 166.013 13.4706C166.005 13.4792 165.998 13.4895 165.993 13.5007C165.988 13.512 165.986 13.524 165.986 13.5362L165.983 51.5663C165.983 51.5909 165.974 51.6144 165.956 51.6318C165.938 51.6492 165.914 51.659 165.889 51.659H153.621C153.596 51.659 153.572 51.6492 153.555 51.6318C153.537 51.6144 153.527 51.5909 153.527 51.5663L153.525 13.5362C153.525 13.5116 153.515 13.488 153.497 13.4706C153.479 13.4533 153.455 13.4435 153.43 13.4435Z" fill="#3374B0"/>
<path d="M190.384 51.6589L178.109 51.6567C178.08 51.6567 178.053 51.6455 178.033 51.6256C178.012 51.6056 178.001 51.5786 178.001 51.5504V2.01929C178.001 1.9911 178.012 1.96408 178.033 1.94415C178.053 1.92422 178.08 1.91302 178.109 1.91302H190.386C190.415 1.91302 190.442 1.92422 190.463 1.94415C190.483 1.96408 190.494 1.9911 190.494 2.01929L190.492 20.7348C190.492 20.7629 190.503 20.79 190.524 20.8099C190.544 20.8298 190.571 20.841 190.6 20.841L203.25 20.8388C203.278 20.8388 203.306 20.8276 203.326 20.8076C203.346 20.7877 203.358 20.7607 203.358 20.7325L203.355 2.01929C203.355 1.9911 203.367 1.96408 203.387 1.94415C203.407 1.92422 203.435 1.91302 203.464 1.91302H215.828C215.857 1.91302 215.884 1.92422 215.904 1.94415C215.925 1.96408 215.936 1.9911 215.936 2.01929V51.5527C215.936 51.5809 215.925 51.6079 215.904 51.6278C215.884 51.6477 215.857 51.6589 215.828 51.6589L203.464 51.6567C203.435 51.6567 203.407 51.6455 203.387 51.6256C203.367 51.6056 203.355 51.5786 203.355 51.5504L203.358 32.7242C203.358 32.696 203.346 32.6689 203.326 32.649C203.306 32.6291 203.278 32.6179 203.25 32.6179L190.602 32.6247C190.574 32.6247 190.546 32.6359 190.526 32.6558C190.506 32.6757 190.494 32.7028 190.494 32.7309L190.492 51.5527C190.492 51.5666 190.489 51.5805 190.484 51.5933C190.478 51.6062 190.47 51.618 190.46 51.6278C190.45 51.6377 190.438 51.6455 190.425 51.6508C190.412 51.6562 190.398 51.6589 190.384 51.6589Z" fill="#3374B0"/>
</g>
<defs>
<clipPath id="clip0_187_11001">
<rect width="332.8" height="52" fill="white" transform="translate(0.266602 0.5)"/>
</clipPath>
</defs>
</svg>
