<svg width="315" height="47" viewBox="0 0 315 47" fill="none" xmlns="http://www.w3.org/2000/svg">
<g clip-path="url(#clip0_187_10868)">
<path d="M36.9825 12.4988C40.5362 12.4988 43.4171 9.71611 43.4171 6.28343C43.4171 2.85075 40.5362 0.0680084 36.9825 0.0680084C33.4287 0.0680084 30.5479 2.85075 30.5479 6.28343C30.5479 9.71611 33.4287 12.4988 36.9825 12.4988Z" fill="#322186"/>
<path d="M39.6677 27.2292L0.414312 7.6605C0.406499 7.65565 0.400626 7.64838 0.397656 7.63988C0.394687 7.63138 0.394798 7.62216 0.397972 7.61373C0.401145 7.6053 0.407193 7.59816 0.41512 7.59349C0.423048 7.58882 0.432385 7.58689 0.441597 7.58802L37.0075 15.679C37.0848 15.6966 37.1606 15.69 37.2348 15.6593L57.38 7.10484C57.389 7.10087 57.3992 7.10002 57.4088 7.10244C57.4184 7.10486 57.4268 7.11041 57.4327 7.11814C57.4386 7.12588 57.4415 7.13533 57.441 7.1449C57.4405 7.15448 57.4366 7.1636 57.43 7.17073L39.9042 27.1831C39.8765 27.2156 39.8379 27.238 39.7949 27.2463C39.7519 27.2547 39.707 27.2487 39.6677 27.2292Z" fill="#FF010B"/>
<path d="M188.137 20.5416C188.161 20.5658 188.193 20.5809 188.228 20.5841C188.262 20.5873 188.297 20.5785 188.325 20.5591L203.548 9.99291C203.551 9.98988 203.555 9.98751 203.559 9.98593C203.563 9.98434 203.568 9.98358 203.572 9.98368C203.577 9.98378 203.581 9.98475 203.586 9.98652C203.59 9.98829 203.594 9.99084 203.597 9.99401C203.6 9.99718 203.602 10.0009 203.604 10.005C203.606 10.0091 203.606 10.0135 203.606 10.0178C203.606 10.0222 203.605 10.0266 203.603 10.0306C203.601 10.0346 203.599 10.0382 203.596 10.0412L184.651 32.8384C184.641 32.8499 184.629 32.8586 184.614 32.8634C184.6 32.8683 184.584 32.8692 184.569 32.866C184.555 32.8628 184.541 32.8557 184.53 32.8454C184.519 32.835 184.511 32.822 184.508 32.8077L179.269 11.6753C179.26 11.6372 179.269 11.6321 179.296 11.6599L188.137 20.5416Z" fill="#FF010B"/>
<path d="M186.41 34.7755L201.261 16.6234C201.273 16.6098 201.289 16.6004 201.307 16.5967C201.324 16.5931 201.343 16.5954 201.359 16.6034C201.375 16.6113 201.388 16.6244 201.396 16.6405C201.403 16.6565 201.405 16.6745 201.4 16.6915L196.162 35.0259C196.157 35.0419 196.146 35.056 196.132 35.0659C196.118 35.0758 196.102 35.081 196.084 35.0808L186.469 34.8985C186.454 34.8977 186.44 34.8932 186.428 34.8854C186.417 34.8776 186.407 34.8668 186.401 34.8541C186.395 34.8415 186.392 34.8275 186.394 34.8137C186.396 34.7998 186.401 34.7866 186.41 34.7755Z" fill="#322186"/>
<path d="M72.7121 21.6968C70.6521 21.308 68.674 22.3425 67.5394 24.0116C66.0774 26.1662 64.6177 31.7183 69.3402 31.569C71.4866 31.5009 72.6416 30.2863 73.8194 28.6853C73.8399 28.6574 73.8679 28.6355 73.9004 28.6219C73.9329 28.6084 73.9686 28.6037 74.0036 28.6084L80.4814 29.3573C80.6133 29.372 80.6481 29.4357 80.586 29.5484C78.4366 33.5075 75.0222 35.7682 70.3429 36.3305C68.6164 36.5369 66.8043 36.49 64.9065 36.1899C60.1362 35.4344 57.9785 32.4804 58.7333 27.8463C59.4086 23.6976 61.8779 20.0627 65.7659 18.1322C68.7081 16.6717 72.3029 16.3972 75.5929 16.8189C79.2741 17.2889 81.8479 19.2435 81.8979 23.0562C81.8979 23.128 81.8616 23.1683 81.7888 23.177L74.8449 24.0468C74.7554 24.0585 74.7107 24.0204 74.7107 23.9326C74.7016 22.6697 73.9854 21.9383 72.7121 21.6968Z" fill="#322186"/>
<path d="M127.636 28.6545C126.324 31.4131 124.344 33.4688 121.694 34.8217C116.645 37.4001 106.513 37.5538 105.849 29.8845C105.394 24.6464 109.38 19.6301 114.075 17.715C117.079 16.4895 121.306 16.2369 124.346 17.3636C129.234 19.1755 129.793 24.1215 127.636 28.6545ZM114.021 25.2328C113.499 26.6076 113.257 27.7497 113.295 28.6589C113.409 31.3076 115.535 32.1137 117.747 31.1319C120.128 30.0777 121.196 26.8975 121.272 24.486C121.349 22.0065 119.034 20.9764 116.911 22.0218C115.542 22.6968 114.578 23.7671 114.021 25.2328Z" fill="#322186"/>
<path d="M136.644 34.2396C136.638 34.2315 136.629 34.2253 136.619 34.2217C136.609 34.2181 136.598 34.2173 136.588 34.2194C136.577 34.2214 136.568 34.2263 136.56 34.2334C136.552 34.2404 136.547 34.2495 136.544 34.2594L134.273 43.0137C134.262 43.0544 134.238 43.0905 134.203 43.1164C134.169 43.1423 134.126 43.1564 134.082 43.1565L126.974 43.1587C126.809 43.1587 126.747 43.0811 126.788 42.9259L133.511 17.1747C133.528 17.1073 133.572 17.0737 133.643 17.0737L140.328 17.0803C140.435 17.0803 140.475 17.13 140.448 17.2296L139.786 19.718C139.782 19.7361 139.784 19.7553 139.791 19.7725C139.799 19.7897 139.812 19.8038 139.829 19.8127C139.846 19.8216 139.865 19.8247 139.884 19.8214C139.903 19.8182 139.92 19.8088 139.932 19.7948C141.558 18.0642 143.414 17.0488 145.498 16.7486C148.377 16.3335 151.16 17.1527 152.276 19.9288C153.235 22.3161 152.872 25.0988 152.105 27.6399C150.584 32.6803 146.289 37.0179 140.453 36.3239C138.873 36.135 137.604 35.4403 136.644 34.2396ZM140.303 23.1397C138.893 24.53 137.372 28.481 138.8 30.2007C139.23 30.7205 139.819 30.9884 140.566 31.0046C142.272 31.0441 143.454 29.9855 144.22 28.5294C144.93 27.1831 145.782 24.4026 144.952 22.9816C143.977 21.3081 141.462 21.9955 140.303 23.1397Z" fill="#322186"/>
<path d="M172.28 34.8524L177.332 16.7135C177.336 16.6984 177.345 16.6851 177.358 16.6758C177.371 16.6664 177.387 16.6614 177.403 16.6617C177.419 16.6619 177.435 16.6674 177.448 16.6771C177.46 16.6869 177.469 16.7005 177.473 16.7157L182.066 34.9666C182.069 34.9772 182.069 34.9882 182.066 34.9989C182.064 35.0096 182.059 35.0196 182.052 35.0281C182.045 35.0366 182.036 35.0434 182.026 35.048C182.015 35.0526 182.004 35.0548 181.993 35.0544L172.35 34.9402C172.339 34.9402 172.328 34.9378 172.318 34.9331C172.308 34.9283 172.299 34.9215 172.293 34.913C172.286 34.9045 172.281 34.8946 172.279 34.8841C172.277 34.8736 172.277 34.8628 172.28 34.8524Z" fill="#322186"/>
<path d="M213.687 33.7784C211.275 35.5984 208.563 36.4718 205.549 36.3985C202.534 36.3261 199.281 35.2433 199.892 31.5778C200.57 27.5278 203.662 26.1244 207.43 25.4085C210.638 24.7957 212.907 24.4355 215.456 23.5856C215.849 23.456 216.19 23.4472 216.215 22.9508C216.267 21.89 216.306 21.1894 214.974 21.0225C212.745 20.7392 211.002 21.2026 209.792 23.087C209.769 23.122 209.737 23.1503 209.699 23.1685C209.661 23.1867 209.618 23.1943 209.576 23.1902L202.925 22.4896C202.833 22.4794 202.806 22.4333 202.843 22.3513C204.915 18.018 208.425 16.988 213.034 16.7025C215.25 16.5663 217.466 16.6783 219.68 17.0385C223.568 17.6732 223.987 20.9457 223.159 24.139C222.468 26.8023 221.775 29.4635 221.081 32.1224C220.729 33.4695 220.691 34.7147 220.965 35.8583C220.982 35.9285 220.953 35.9637 220.879 35.9637H214.128C214.067 35.9637 214.028 35.9359 214.01 35.8802C213.778 35.2199 213.711 34.5427 213.81 33.8487C213.828 33.7257 213.787 33.7023 213.687 33.7784ZM213.696 30.4621C214.508 29.5221 214.887 28.3141 215.115 27.0952C215.116 27.0867 215.115 27.078 215.112 27.07C215.108 27.062 215.103 27.0549 215.096 27.0494C215.09 27.0439 215.081 27.0402 215.073 27.0386C215.064 27.037 215.055 27.0376 215.046 27.0403C213.781 27.4341 212.505 27.776 211.22 28.0659C210.206 28.2958 209.34 28.6267 208.623 29.0586C207.252 29.8866 206.884 32.3157 209.11 32.364C211.039 32.405 212.568 31.771 213.696 30.4621Z" fill="#322186"/>
<path d="M232.384 25.2657C231.663 27.0096 230.933 29.7483 232.693 30.9826C233.381 31.4658 234.22 31.6488 235.21 31.5317C237.043 31.3164 238.371 30.2227 239.282 28.7292C239.307 28.6881 239.344 28.655 239.388 28.6339C239.432 28.6128 239.482 28.6047 239.53 28.6106L246.004 29.3596C246.03 29.3627 246.056 29.3721 246.078 29.3871C246.1 29.4021 246.118 29.4221 246.13 29.4453C246.142 29.4686 246.148 29.4944 246.148 29.5204C246.147 29.5464 246.14 29.5719 246.126 29.5946C243.525 34.0076 239.621 36.2756 234.414 36.3986C231.75 36.4623 228.71 36.3327 226.613 34.8063C223.25 32.3553 223.771 28.2966 225.083 24.8528C226.67 20.6909 230.522 17.7194 234.976 16.909C237.809 16.3928 242.231 16.4829 244.632 17.928C246.385 18.9822 247.313 20.6733 247.418 23.0014C247.422 23.1068 247.371 23.1668 247.263 23.1815L240.367 24.0468C240.265 24.06 240.213 24.0168 240.21 23.9172C240.165 21.1829 236.634 21.2202 234.94 22.2503C233.772 22.9589 232.921 23.9641 232.384 25.2657Z" fill="#322186"/>
<path d="M274.079 28.4284C273.336 33.0405 278.283 32.9065 280.541 30.528C280.572 30.4953 280.611 30.4699 280.654 30.4539C280.697 30.4379 280.743 30.4317 280.789 30.4357L287.633 31.0661C287.648 31.0674 287.662 31.0725 287.673 31.0808C287.685 31.0892 287.695 31.1005 287.7 31.1135C287.706 31.1265 287.708 31.1408 287.706 31.1549C287.705 31.169 287.699 31.1823 287.69 31.1935C284.013 35.8605 279.125 36.7127 273.356 36.269C270.491 36.0479 268.506 34.8905 267.399 32.7967C266.203 30.528 266.472 27.5784 267.408 25.1977C270.107 18.3387 277.165 15.5187 284.334 17.032C290.3 18.2926 290.486 23.59 288.972 28.2505C288.955 28.3046 288.918 28.3317 288.858 28.3317H274.193C274.126 28.3317 274.088 28.3639 274.079 28.4284ZM280.569 21.0292C277.886 20.4318 275.892 22.5006 275.057 24.7321C275.022 24.8258 275.056 24.8726 275.159 24.8726L282.212 24.8748C282.281 24.8748 282.32 24.8419 282.331 24.776C282.61 23.2298 282.442 21.4464 280.569 21.0292Z" fill="#322186"/>
<path d="M301.298 19.7158C301.719 19.3863 302.138 19.0518 302.553 18.7121C306.211 15.723 312.942 15.4968 314.044 21.1961C314.576 23.9502 313.91 27.0293 312.764 29.5836C310.959 33.6115 307.23 36.5501 302.539 36.37C300.659 36.2976 299.149 35.6409 298.035 34.2309C298.03 34.2235 298.022 34.2178 298.013 34.2144C298.005 34.211 297.995 34.2101 297.986 34.2117C297.977 34.2133 297.968 34.2174 297.961 34.2235C297.954 34.2296 297.949 34.2375 297.947 34.2462L295.646 43.0576C295.638 43.0871 295.62 43.1132 295.596 43.1319C295.571 43.1506 295.54 43.1608 295.509 43.1609L288.242 43.1565C288.162 43.1565 288.132 43.1191 288.151 43.0445L294.904 17.1681C294.919 17.1066 294.96 17.0759 295.025 17.0759H301.737C301.832 17.0759 301.868 17.1205 301.844 17.2098L301.207 19.6587C301.178 19.767 301.209 19.7861 301.298 19.7158ZM300.502 24.8616C299.761 26.5 298.722 30.0975 301.196 30.864C303.069 31.4416 304.797 30.1832 305.598 28.5755C306.249 27.2709 306.608 25.9327 306.673 24.5607C306.805 21.8176 304.038 21.363 302.173 22.7422C301.458 23.2723 300.901 23.9787 300.502 24.8616Z" fill="#322186"/>
<path d="M90.8698 22.4479L87.3637 35.9066C87.3597 35.9223 87.3503 35.9362 87.3372 35.9462C87.324 35.9561 87.3077 35.9615 87.291 35.9615L80.0174 35.9659C80.006 35.9659 79.9947 35.9634 79.9845 35.9586C79.9742 35.9537 79.9653 35.9467 79.9583 35.938C79.9513 35.9294 79.9464 35.9192 79.944 35.9085C79.9416 35.8977 79.9419 35.8866 79.9446 35.8759L84.8331 17.1418C84.8372 17.1261 84.8465 17.1122 84.8597 17.1022C84.8729 17.0923 84.8891 17.0869 84.9059 17.0869L105.265 17.0912C105.276 17.0913 105.287 17.0938 105.298 17.0986C105.308 17.1034 105.317 17.1104 105.324 17.1191C105.331 17.1278 105.336 17.1379 105.338 17.1487C105.34 17.1595 105.34 17.1706 105.337 17.1813L100.447 35.9088C100.443 35.9245 100.433 35.9384 100.42 35.9484C100.407 35.9583 100.391 35.9637 100.374 35.9637H93.0958C93.0844 35.9637 93.0731 35.9612 93.0629 35.9564C93.0527 35.9515 93.0437 35.9445 93.0367 35.9358C93.0297 35.9272 93.0248 35.917 93.0224 35.9063C93.0201 35.8955 93.0203 35.8844 93.023 35.8737L96.5223 22.4853C96.525 22.4746 96.5252 22.4634 96.5229 22.4527C96.5205 22.4419 96.5156 22.4318 96.5086 22.4231C96.5016 22.4144 96.4926 22.4074 96.4824 22.4026C96.4722 22.3977 96.4609 22.3952 96.4495 22.3952L90.9426 22.393C90.9259 22.393 90.9096 22.3984 90.8964 22.4084C90.8832 22.4183 90.8739 22.4323 90.8698 22.4479Z" fill="#322186"/>
<path d="M159.859 22.393L154.718 22.3996C154.704 22.3996 154.689 22.3965 154.676 22.3904C154.663 22.3843 154.652 22.3755 154.643 22.3644C154.634 22.3534 154.627 22.3406 154.624 22.3269C154.621 22.3132 154.621 22.299 154.625 22.2854L155.962 17.1549C155.967 17.1348 155.979 17.1169 155.996 17.1042C156.013 17.0914 156.034 17.0845 156.055 17.0846L174.058 17.0934C174.073 17.0933 174.087 17.0965 174.1 17.1026C174.113 17.1086 174.125 17.1175 174.134 17.1285C174.143 17.1396 174.149 17.1524 174.152 17.1661C174.155 17.1798 174.155 17.194 174.151 17.2076L172.826 22.3315C172.821 22.3516 172.809 22.3695 172.792 22.3823C172.775 22.395 172.754 22.4019 172.733 22.4018L167.496 22.3908C167.475 22.3907 167.454 22.3976 167.437 22.4103C167.42 22.4231 167.408 22.4409 167.403 22.4611L163.899 35.8978C163.894 35.9179 163.882 35.9358 163.865 35.9486C163.848 35.9613 163.828 35.9682 163.806 35.9681L156.562 35.9615C156.548 35.9616 156.533 35.9584 156.52 35.9523C156.507 35.9463 156.496 35.9374 156.487 35.9264C156.478 35.9154 156.471 35.9025 156.468 35.8888C156.465 35.8751 156.465 35.8609 156.469 35.8473L159.952 22.5072C159.956 22.4936 159.956 22.4794 159.953 22.4657C159.95 22.452 159.943 22.4391 159.934 22.4281C159.925 22.4171 159.914 22.4082 159.901 22.4021C159.888 22.396 159.873 22.3929 159.859 22.393Z" fill="#322186"/>
<path d="M254.663 22.393L249.557 22.4018C249.54 22.402 249.523 22.3984 249.508 22.3914C249.493 22.3844 249.48 22.3741 249.47 22.3614C249.459 22.3487 249.452 22.3338 249.449 22.3179C249.445 22.3021 249.446 22.2857 249.45 22.27L250.789 17.1593C250.795 17.1369 250.808 17.117 250.827 17.1027C250.846 17.0884 250.87 17.0805 250.894 17.0803L268.876 17.0934C268.893 17.0933 268.91 17.0968 268.925 17.1038C268.94 17.1108 268.953 17.1211 268.963 17.1338C268.974 17.1466 268.981 17.1615 268.984 17.1773C268.988 17.1931 268.987 17.2095 268.983 17.2252L267.653 22.3161C267.647 22.3386 267.634 22.3585 267.615 22.3728C267.596 22.3871 267.573 22.395 267.549 22.3952L262.33 22.393C262.306 22.3933 262.283 22.4011 262.264 22.4154C262.245 22.4297 262.232 22.4496 262.226 22.4721L258.729 35.8847C258.723 35.9071 258.709 35.927 258.69 35.9413C258.671 35.9556 258.648 35.9635 258.624 35.9637H251.403C251.386 35.9639 251.37 35.9603 251.354 35.9533C251.339 35.9463 251.326 35.9361 251.316 35.9233C251.305 35.9106 251.298 35.8957 251.295 35.8799C251.291 35.864 251.292 35.8476 251.296 35.8319L254.77 22.5248C254.774 22.5091 254.775 22.4927 254.771 22.4769C254.768 22.461 254.761 22.4462 254.75 22.4334C254.74 22.4207 254.727 22.4104 254.712 22.4034C254.697 22.3964 254.68 22.3928 254.663 22.393Z" fill="#322186"/>
<path d="M24.6437 23.3593L70.7523 45.7326C70.9631 45.8351 70.9524 45.8637 70.7205 45.8183C56.5022 43.0466 42.2665 40.2771 28.0133 37.5098C27.4858 37.4088 27.2221 37.3166 26.7014 37.5274C18.9647 40.6622 11.2697 43.7721 3.61638 46.8571C3.44358 46.9259 3.41856 46.8915 3.54135 46.7539L24.3572 23.4142C24.4375 23.3234 24.533 23.3051 24.6437 23.3593Z" fill="#322186"/>
</g>
<defs>
<clipPath id="clip0_187_10868">
<rect width="314" height="47" fill="white" transform="translate(0.333008)"/>
</clipPath>
</defs>
</svg>
