<svg width="316" height="51" viewBox="0 0 316 51" fill="none" xmlns="http://www.w3.org/2000/svg">
<g clip-path="url(#clip0_187_10829)">
<path d="M50.2789 25.5311C50.2789 32.2668 47.6337 38.7267 42.9251 43.4895C38.2166 48.2524 31.8305 50.9282 25.1717 50.9282C18.5128 50.9282 12.1267 48.2524 7.41818 43.4895C2.70967 38.7267 0.0644531 32.2668 0.0644531 25.5311C0.0644531 18.7954 2.70967 12.3356 7.41818 7.5727C12.1267 2.80983 18.5128 0.134079 25.1717 0.134079C31.8305 0.134079 38.2166 2.80983 42.9251 7.5727C47.6337 12.3356 50.2789 18.7954 50.2789 25.5311ZM14.4821 15.5945L15.971 13.6335C15.9793 13.6226 15.9845 13.6096 15.986 13.5959C15.9874 13.5822 15.985 13.5683 15.9791 13.5559C15.9733 13.5435 15.964 13.5329 15.9526 13.5255C15.9411 13.5181 15.9278 13.514 15.9142 13.5138L4.1689 13.509C4.15316 13.5088 4.13773 13.5131 4.12423 13.5212C4.11072 13.5294 4.09964 13.5412 4.09214 13.5554C4.08463 13.5696 4.08099 13.5856 4.08159 13.6019C4.08218 13.6182 4.087 13.6341 4.09553 13.6479L10.193 23.1535C10.2041 23.1714 10.2198 23.1858 10.2384 23.1953C10.257 23.2047 10.2779 23.2088 10.2987 23.2071C10.3194 23.2054 10.3393 23.1979 10.3562 23.1855C10.3731 23.1731 10.3862 23.1562 10.3942 23.1368L11.0688 21.487C11.0762 21.4688 11.0881 21.4527 11.1034 21.4404C11.1186 21.4282 11.1368 21.4201 11.156 21.4169C11.1753 21.4138 11.195 21.4158 11.2133 21.4226C11.2317 21.4294 11.2479 21.4409 11.2606 21.4559C15.2719 26.3229 18.2946 31.7557 20.3287 37.7544C20.3871 37.9284 20.3263 38.0018 20.1464 37.9746L17.9972 37.6418C17.8709 37.6227 17.8394 37.669 17.9025 37.7807L23.4958 47.5641C23.5024 47.5742 23.512 47.5819 23.5232 47.5862C23.5344 47.5905 23.5466 47.5911 23.5582 47.5879C23.5697 47.5847 23.58 47.5779 23.5875 47.5685C23.595 47.559 23.5993 47.5474 23.5999 47.5353L23.5502 15.7861C23.5496 15.7509 23.5354 15.7174 23.5106 15.6928C23.4858 15.6682 23.4524 15.6544 23.4177 15.6544L14.5484 15.731C14.4332 15.7326 14.4111 15.6871 14.4821 15.5945ZM35.9133 15.6256L26.8594 15.6184C26.7726 15.6184 26.7292 15.6623 26.7292 15.7501L26.8002 47.4923C26.8006 47.5056 26.8052 47.5184 26.8134 47.5289C26.8216 47.5393 26.8329 47.5469 26.8456 47.5503C26.8583 47.5538 26.8718 47.5531 26.8841 47.5482C26.8964 47.5434 26.9068 47.5347 26.9138 47.5234L32.5095 37.7161C32.5631 37.6219 32.5363 37.5812 32.429 37.5939L30.2229 37.8693C30.2048 37.8713 30.1864 37.8688 30.1694 37.8619C30.1525 37.855 30.1375 37.844 30.126 37.83C30.1144 37.8159 30.1066 37.7992 30.1033 37.7813C30.1 37.7635 30.1012 37.7452 30.1069 37.728C32.0889 31.7277 35.0651 26.2861 39.0354 21.4032C39.0478 21.3876 39.064 21.3754 39.0825 21.3681C39.1009 21.3607 39.121 21.3584 39.1406 21.3613C39.1602 21.3642 39.1788 21.3722 39.1944 21.3846C39.21 21.397 39.2221 21.4134 39.2295 21.432L39.9183 23.12C39.9252 23.1358 39.9361 23.1494 39.9499 23.1594C39.9637 23.1694 39.98 23.1755 39.997 23.177C40.0139 23.1784 40.0309 23.1753 40.0463 23.1678C40.0616 23.1603 40.0746 23.1487 40.084 23.1344L46.1294 13.6239C46.1989 13.5154 46.1697 13.4611 46.0419 13.4611L34.8576 13.4731C34.6714 13.4731 34.6311 13.5505 34.7369 13.7053L35.9654 15.5275C36.0096 15.5929 35.9922 15.6256 35.9133 15.6256Z" fill="#2D3B81"/>
<path d="M200.496 18.7957C200.51 9.98201 207.27 7.63553 214.689 8.82074C219.645 9.61327 221.778 12.8624 221.882 17.7062C221.915 19.2131 221.914 20.7231 221.88 22.2364C221.878 22.297 221.847 22.3274 221.787 22.3274L213.569 22.325C213.492 22.325 213.453 22.2859 213.453 22.2076C213.45 20.6018 213.445 19.0064 213.439 17.4213C213.432 15.7812 212.776 14.1602 210.804 14.4858C209.521 14.6965 209.017 15.774 209.015 16.9999C209.004 24.199 209.006 31.3988 209.022 38.5995C209.027 40.8981 212.172 41.6523 213.122 39.6386C213.361 39.1278 213.477 38.4454 213.467 37.5914C213.448 35.7159 213.443 33.8403 213.453 31.9647C213.453 31.8849 213.492 31.845 213.571 31.845H221.783C221.852 31.845 221.887 31.8809 221.889 31.9527C221.932 34.6751 222.128 38.0105 221.43 40.3809C220.371 43.9788 217.751 46.026 213.571 46.5224C206.025 47.4179 200.567 44.5806 200.524 36.1548C200.496 30.3684 200.486 24.5821 200.496 18.7957Z" fill="#2D3B81"/>
<path d="M252.023 44.5136C250.787 43.516 249.909 42.2006 249.388 40.5677C248.996 39.329 248.794 37.9977 248.785 36.5739C248.726 27.3779 248.707 21.4319 248.726 18.7359C248.756 14.4763 250.565 10.6357 254.809 9.22543C257.22 8.42412 259.822 8.3052 262.615 8.86867C268.294 10.0132 270.128 14.1267 270.133 19.4757C270.136 25.3547 270.136 31.2337 270.131 37.1126C270.131 37.3936 270.072 37.9235 269.956 38.7025C269.367 42.6404 267.241 45.129 263.579 46.1681C260.019 47.1785 254.989 46.9032 252.023 44.5136ZM257.855 15.1108C257.181 15.8387 257.124 16.7174 257.122 17.7159C257.107 24.4823 257.111 31.2464 257.131 38.0081C257.136 39.5597 257.767 40.4655 259.025 40.7257C260.26 40.9819 261.307 40.2756 261.631 39.0832C261.697 38.8453 261.731 38.0863 261.733 36.8061C261.742 30.1227 261.741 23.4416 261.73 16.7629C261.728 14.7875 259.254 13.5999 257.855 15.1108Z" fill="#2D3B81"/>
<path d="M78.5861 14.6462L78.5838 45.864C78.5838 45.8932 78.5723 45.9212 78.5519 45.9419C78.5314 45.9625 78.5038 45.9741 78.4749 45.9741L70.2423 45.9717C70.2134 45.9717 70.1857 45.9601 70.1653 45.9395C70.1449 45.9188 70.1334 45.8908 70.1334 45.8616V14.6439C70.1334 14.6146 70.122 14.5866 70.1015 14.566C70.0811 14.5453 70.0534 14.5337 70.0245 14.5337H64.3271C64.2982 14.5337 64.2705 14.5221 64.2501 14.5015C64.2297 14.4808 64.2182 14.4528 64.2182 14.4236L64.2158 9.39301C64.2158 9.3638 64.2273 9.33578 64.2477 9.31513C64.2681 9.29447 64.2958 9.28286 64.3247 9.28286L84.3948 9.28047C84.4237 9.28047 84.4514 9.29208 84.4718 9.31273C84.4923 9.33339 84.5037 9.3614 84.5037 9.39061V14.426C84.5037 14.4552 84.4923 14.4832 84.4718 14.5038C84.4514 14.5245 84.4237 14.5361 84.3948 14.5361H78.695C78.6661 14.5361 78.6384 14.5477 78.618 14.5684C78.5976 14.589 78.5861 14.617 78.5861 14.6462Z" fill="#2D3B81"/>
<path d="M95.2638 32.4509L95.2614 45.8594C95.2614 45.9344 95.2236 45.9719 95.1478 45.9719L86.9602 45.9743C86.8624 45.9743 86.8135 45.924 86.8135 45.8235V9.40517C86.8135 9.33493 86.849 9.29981 86.92 9.29981C91.946 9.25831 95.9234 9.26071 98.8522 9.307C103.241 9.37404 107.954 10.9328 108.155 16.1621C108.29 19.6515 108.302 22.3459 108.19 24.2454C108.023 27.0884 106.815 29.2058 104.566 30.5977C102.712 31.7454 100.856 32.3185 98.999 32.3169C97.7965 32.3153 96.5909 32.3193 95.3822 32.3288C95.3033 32.3304 95.2638 32.3711 95.2638 32.4509ZM95.3751 27.0157C97.4155 27.2264 99.4393 26.9918 99.7446 24.5735C99.9403 23.0203 100.014 21.4616 99.9671 19.8973C99.9032 17.8046 100.171 14.6416 97.2805 14.6153C96.4142 14.6073 95.7822 14.6033 95.3845 14.6033C95.3041 14.6033 95.2638 14.644 95.2638 14.7254V26.8912C95.2638 26.9662 95.3009 27.0077 95.3751 27.0157Z" fill="#2D3B81"/>
<path d="M117.841 29.7906L123.505 9.38341C123.524 9.31637 123.567 9.28285 123.635 9.28285H131.844C131.859 9.28285 131.874 9.28865 131.884 9.29898C131.895 9.30931 131.901 9.32332 131.901 9.33792V45.8544C131.901 45.9326 131.862 45.9717 131.783 45.9717H124.452C124.376 45.9717 124.338 45.9334 124.338 45.8568L124.343 25.0162C124.342 24.9981 124.335 24.9809 124.322 24.9676C124.31 24.9543 124.294 24.9456 124.276 24.9431C124.258 24.9405 124.24 24.9443 124.225 24.9537C124.209 24.9631 124.198 24.9776 124.192 24.9947L118.361 45.8712C118.352 45.9009 118.334 45.9269 118.31 45.9454C118.285 45.9639 118.255 45.974 118.224 45.9741L110.304 45.9717C110.241 45.9717 110.181 45.9465 110.137 45.9016C110.092 45.8567 110.067 45.7958 110.067 45.7323V9.39778C110.067 9.31956 110.107 9.28046 110.186 9.28046L117.526 9.28285C117.603 9.28285 117.642 9.32196 117.642 9.40017V29.7619C117.642 30.2615 117.708 30.2711 117.841 29.7906Z" fill="#2D3B81"/>
<path d="M147.405 36.981L143.048 36.9738C143.021 36.9741 142.996 36.9839 142.976 37.0014C142.956 37.019 142.943 37.0431 142.939 37.0696L141.594 45.8761C141.59 45.9025 141.577 45.9267 141.557 45.9442C141.537 45.9618 141.512 45.9716 141.485 45.9718H134.195C134.179 45.9721 134.162 45.9687 134.147 45.9619C134.133 45.9551 134.119 45.945 134.109 45.9324C134.098 45.9199 134.09 45.9051 134.086 45.8891C134.082 45.8732 134.081 45.8565 134.084 45.8402L140.207 9.37635C140.212 9.34993 140.225 9.32601 140.246 9.30889C140.266 9.29177 140.292 9.28258 140.318 9.28297H151.765C151.792 9.28333 151.818 9.29345 151.838 9.31149C151.858 9.32952 151.871 9.35426 151.874 9.38114L156.526 45.8449C156.528 45.8607 156.526 45.8767 156.522 45.8919C156.517 45.9071 156.51 45.9211 156.499 45.9331C156.489 45.9451 156.476 45.9547 156.462 45.9614C156.448 45.9681 156.432 45.9716 156.417 45.9718H148.558C148.531 45.972 148.504 45.9618 148.483 45.9432C148.463 45.9246 148.45 45.899 148.447 45.8713L147.514 37.0816C147.511 37.0542 147.499 37.0289 147.479 37.0104C147.459 36.9919 147.433 36.9814 147.405 36.981ZM145.197 15.142L143.533 31.2249C143.522 31.3175 143.564 31.3638 143.658 31.3638L146.956 31.3662C147.049 31.3678 147.091 31.3207 147.083 31.2249L145.632 15.1444C145.633 15.086 145.61 15.0298 145.57 14.9883C145.529 14.9467 145.474 14.9232 145.416 14.9229C145.358 14.9226 145.303 14.9455 145.262 14.9866C145.22 15.0277 145.197 15.0836 145.197 15.142Z" fill="#2D3B81"/>
<path d="M172.909 14.9024H169.423C169.341 14.9024 169.3 14.9439 169.3 15.0269C169.298 22.7895 169.298 30.5504 169.3 38.3098C169.3 38.6641 169.214 39.3425 169.042 40.345C168.516 43.4241 166.634 45.8376 163.385 45.9574C162.368 45.9957 160.692 45.9949 158.355 45.955C158.284 45.9534 158.248 45.9167 158.248 45.8448L158.25 40.4671C158.25 40.3905 158.288 40.3529 158.362 40.3545C160.187 40.3785 161.612 40.5748 161.612 38.2331C161.61 28.6221 161.611 19.0112 161.614 9.40017C161.614 9.32196 161.653 9.28285 161.732 9.28285L181.436 9.28046C181.514 9.28046 181.554 9.32036 181.554 9.40017L181.552 45.6126C181.552 45.8536 181.433 45.9741 181.197 45.9741H173.208C173.161 45.9741 173.116 45.9549 173.082 45.9208C173.049 45.8867 173.03 45.8404 173.03 45.7921V15.0245C173.03 14.9431 172.99 14.9024 172.909 14.9024Z" fill="#2D3B81"/>
<path d="M237.435 14.9024L233.189 14.9001C233.16 14.9001 233.132 14.9117 233.112 14.9323C233.091 14.953 233.08 14.981 233.08 15.0102V45.864C233.08 45.8932 233.068 45.9212 233.048 45.9419C233.028 45.9625 233 45.9741 232.971 45.9741L224.741 45.9717C224.712 45.9717 224.684 45.9601 224.664 45.9395C224.643 45.9188 224.632 45.8908 224.632 45.8616V9.39061C224.632 9.3614 224.643 9.33339 224.664 9.31273C224.684 9.29208 224.712 9.28047 224.741 9.28047H245.928C245.957 9.28047 245.985 9.29208 246.005 9.31273C246.026 9.33339 246.037 9.3614 246.037 9.39061L246.035 45.8616C246.035 45.8908 246.023 45.9188 246.003 45.9395C245.982 45.9601 245.955 45.9717 245.926 45.9717H237.653C237.624 45.9717 237.596 45.9601 237.576 45.9395C237.556 45.9188 237.544 45.8908 237.544 45.8616V15.0126C237.544 14.9981 237.541 14.9838 237.536 14.9704C237.53 14.9571 237.522 14.9449 237.512 14.9347C237.502 14.9245 237.49 14.9164 237.477 14.9108C237.464 14.9053 237.449 14.9024 237.435 14.9024Z" fill="#2D3B81"/>
<path d="M281.308 32.4485V45.8593C281.308 45.9343 281.271 45.9719 281.197 45.9719L273.009 45.9742C272.911 45.9742 272.862 45.924 272.862 45.8234V9.40269C272.862 9.33086 272.899 9.29495 272.971 9.29495C278.43 9.26781 282.239 9.26462 284.399 9.28537C289.166 9.33326 294.121 10.722 294.241 16.5834C294.32 20.4798 294.328 23.0131 294.265 24.1831C294.114 27.0164 292.949 29.1259 290.771 30.5114C288.875 31.7182 286.967 32.32 285.048 32.3168C283.842 32.3152 282.635 32.3192 281.426 32.3288C281.395 32.3294 281.365 32.3423 281.342 32.3647C281.32 32.387 281.308 32.4171 281.308 32.4485ZM284.163 26.8648C285.689 26.2662 285.976 24.322 286.002 22.8638C286.029 21.3075 286.014 19.7527 285.957 18.1996C285.827 14.6607 284.492 14.5362 281.426 14.6104C281.349 14.612 281.31 14.6519 281.31 14.7302V26.8744C281.31 26.9446 281.345 26.9845 281.414 26.9941C282.625 27.1521 283.541 27.109 284.163 26.8648Z" fill="#2D3B81"/>
<path d="M301.371 14.5362L295.62 14.5338C295.598 14.5338 295.578 14.5252 295.563 14.51C295.548 14.4947 295.539 14.474 295.539 14.4524V9.36437C295.539 9.34278 295.548 9.32207 295.563 9.3068C295.578 9.29154 295.598 9.28296 295.62 9.28296H315.739C315.761 9.28296 315.781 9.29154 315.796 9.3068C315.811 9.32207 315.82 9.34278 315.82 9.36437V14.4524C315.82 14.474 315.811 14.4947 315.796 14.51C315.781 14.5252 315.761 14.5338 315.739 14.5338H309.983C309.961 14.5338 309.941 14.5424 309.926 14.5576C309.911 14.5729 309.902 14.5936 309.902 14.6152V45.8928C309.902 45.9144 309.894 45.9351 309.879 45.9504C309.864 45.9656 309.843 45.9742 309.822 45.9742L301.535 45.9718C301.513 45.9718 301.493 45.9633 301.478 45.948C301.463 45.9327 301.454 45.912 301.454 45.8904L301.452 14.6176C301.452 14.596 301.443 14.5753 301.428 14.56C301.413 14.5448 301.393 14.5362 301.371 14.5362Z" fill="#2D3B81"/>
<path d="M191.286 31.2393C193.26 31.2393 194.86 29.6206 194.86 27.6238C194.86 25.627 193.26 24.0083 191.286 24.0083C189.312 24.0083 187.712 25.627 187.712 27.6238C187.712 29.6206 189.312 31.2393 191.286 31.2393Z" fill="#2D3B81"/>
</g>
<defs>
<clipPath id="clip0_187_10829">
<rect width="316" height="51" fill="white"/>
</clipPath>
</defs>
</svg>
