<svg width="227" height="65" viewBox="0 0 227 65" fill="none" xmlns="http://www.w3.org/2000/svg">
<g clip-path="url(#clip0_187_10913)">
<path d="M86.6204 26.7489C85.9632 23.2929 80.7593 21.9028 78.0562 20.4948C74.2112 18.4914 71.2584 16.5268 70.6785 11.9456C70.1551 7.79601 72.0553 3.92326 75.823 2.07173C80.6374 -0.294784 87.8664 0.630984 91.6906 4.50075C91.7186 4.5291 91.7357 4.56642 91.739 4.60615C91.7422 4.64589 91.7314 4.68551 91.7084 4.71805L88.589 9.10875C88.5735 9.13123 88.5532 9.15003 88.5296 9.16383C88.506 9.17764 88.4797 9.18611 88.4525 9.18867C88.4253 9.19122 88.3979 9.18779 88.3721 9.17861C88.3464 9.16943 88.323 9.15473 88.3035 9.13554C85.9008 6.77399 83.054 6.05163 79.7631 6.96847C76.4831 7.88531 76.4772 12.017 78.8294 13.937C79.5887 14.5562 80.4143 15.0662 81.3064 15.4671C83.2116 16.3244 85.1058 17.2035 86.9892 18.1045C89.6893 19.3964 91.8957 21.4295 92.7968 24.3527C94.8605 31.0384 89.9837 36.5424 83.4862 37.3074C78.7104 37.873 72.6649 36.4501 69.8726 32.1874C69.7477 31.9969 69.7596 31.8144 69.9083 31.6397L73.227 27.7491C73.2373 27.7372 73.2501 27.7276 73.2644 27.721C73.2788 27.7144 73.2944 27.711 73.3102 27.711C73.326 27.711 73.3416 27.7144 73.356 27.721C73.3704 27.7276 73.3832 27.7372 73.3935 27.7491C75.4711 30.1801 78.1157 31.4691 81.3273 31.6159C84.1909 31.7439 87.2657 30.1335 86.6204 26.7489Z" fill="black"/>
<path d="M156.217 34.6135C148.218 39.6888 136.266 38.1707 130.631 30.2258C124.485 21.5605 126.932 8.30204 136.37 3.12846C139.876 1.20549 143.671 0.610138 147.679 0.919719C156.82 1.62223 163.511 7.96567 164.335 17.2769C164.948 24.1979 162.134 30.8568 156.217 34.6135ZM149.422 31.1575C156.181 29.3238 158.991 22.1618 157.433 15.7588C156.202 10.6983 152.375 7.30781 147.284 6.67674C136.95 5.39377 131.166 16.3184 135.24 24.942C137.786 30.33 143.721 32.7024 149.422 31.1575Z" fill="black"/>
<path d="M9.33685 30.8658C9.32289 30.884 9.31432 30.9057 9.31212 30.9285C9.30993 30.9513 9.31419 30.9743 9.32443 30.9948C9.33467 31.0153 9.35047 31.0325 9.37003 31.0444C9.38958 31.0564 9.41209 31.0625 9.43499 31.0622H29.2278C29.3507 31.0622 29.4122 31.1248 29.4122 31.2498V36.7865C29.4122 36.8977 29.3557 36.9532 29.2427 36.9532L0.909435 36.9502C0.8985 36.9502 0.887673 36.9481 0.877571 36.9439C0.867469 36.9397 0.85829 36.9336 0.850559 36.9258C0.842827 36.9181 0.836694 36.9089 0.83251 36.8988C0.828325 36.8887 0.826172 36.8778 0.826172 36.8669V32.9584C0.826172 32.7362 0.894566 32.5367 1.03136 32.3601L20.39 7.34653C20.4022 7.33077 20.4097 7.31194 20.4118 7.29214C20.4138 7.27235 20.4104 7.25237 20.4017 7.23444C20.3931 7.21652 20.3796 7.20135 20.3628 7.19066C20.3461 7.17996 20.3267 7.17415 20.3068 7.17388L1.98888 7.18578C1.88778 7.18578 1.83722 7.13518 1.83722 7.03397L1.83128 1.52997C1.83128 1.40892 1.89273 1.34839 2.01565 1.34839L28.7104 1.35732C28.8393 1.35732 28.9047 1.42281 28.9067 1.55378C28.9156 2.06578 29.1594 5.29555 28.639 5.96234C22.1723 14.2675 15.7382 22.5686 9.33685 30.8658Z" fill="black"/>
<path d="M42.2235 27.8979L38.5005 36.8728C38.491 36.8966 38.4746 36.917 38.4533 36.9313C38.4321 36.9456 38.4071 36.9533 38.3815 36.9532L32.3598 36.9502C32.3385 36.9505 32.3175 36.9454 32.2987 36.9354C32.2798 36.9255 32.2638 36.911 32.2519 36.8932C32.2401 36.8755 32.2329 36.8551 32.231 36.8338C32.2291 36.8126 32.2325 36.7912 32.2409 36.7716L47.2045 1.37217C47.2144 1.34896 47.2311 1.32922 47.2522 1.31545C47.2734 1.30168 47.2982 1.29448 47.3234 1.29478L52.6552 1.30073C52.68 1.30102 52.7041 1.30848 52.7247 1.32222C52.7453 1.33596 52.7614 1.35538 52.7712 1.37813L67.7288 36.7716C67.7373 36.7912 67.7407 36.8126 67.7387 36.8338C67.7368 36.8551 67.7296 36.8755 67.7178 36.8932C67.706 36.911 67.6899 36.9255 67.6711 36.9354C67.6522 36.9454 67.6312 36.9505 67.6099 36.9502L61.2432 36.9532C61.2177 36.9533 61.1926 36.9456 61.1714 36.9313C61.1502 36.917 61.1338 36.8966 61.1243 36.8728L57.422 27.889C57.4125 27.8652 57.3961 27.8449 57.3749 27.8305C57.3537 27.8162 57.3287 27.8086 57.3031 27.8086L42.3425 27.8205C42.3172 27.8203 42.2925 27.8274 42.2713 27.8412C42.2501 27.855 42.2335 27.8747 42.2235 27.8979ZM44.6679 21.7361C44.6571 21.7613 44.6528 21.7888 44.6552 21.8162C44.6576 21.8435 44.6667 21.8698 44.6817 21.8928C44.6967 21.9158 44.7171 21.9347 44.7412 21.9478C44.7652 21.961 44.7922 21.968 44.8196 21.9683L54.826 22.0189C54.8533 22.0189 54.8802 22.0122 54.9043 21.9994C54.9284 21.9866 54.949 21.9681 54.9643 21.9455C54.9796 21.9228 54.989 21.8968 54.9919 21.8696C54.9947 21.8424 54.9909 21.815 54.9807 21.7897L50.0414 9.58799C50.0288 9.55783 50.0077 9.53201 49.9807 9.51375C49.9536 9.49548 49.9218 9.48558 49.8892 9.48526C49.8566 9.48494 49.8246 9.49423 49.7972 9.51196C49.7698 9.5297 49.7482 9.5551 49.7351 9.58501L44.6679 21.7361Z" fill="black"/>
<path d="M106.056 24.3259L106.053 36.7508C106.053 36.8235 106.024 36.8931 105.972 36.9445C105.921 36.9958 105.85 37.0247 105.777 37.0247L99.9277 37.0336C99.8961 37.0336 99.8659 37.0208 99.8436 36.9979C99.8213 36.975 99.8087 36.9439 99.8087 36.9116L99.7998 1.61334C99.7998 1.44664 99.8831 1.36131 100.05 1.35734C103.566 1.30574 107.139 1.29284 110.767 1.31864C117.419 1.36329 123.441 4.55138 123.747 11.9188C124.044 19.0035 119.153 23.7008 112.405 24.2217C110.885 24.3368 108.822 24.3209 106.217 24.1741C106.11 24.1681 106.056 24.2187 106.056 24.3259ZM106.027 7.54301L106.08 17.8009C106.081 17.8611 106.093 17.9206 106.116 17.9761C106.14 18.0315 106.174 18.0819 106.216 18.1242C106.259 18.1664 106.31 18.1999 106.366 18.2226C106.421 18.2452 106.481 18.2567 106.541 18.2563L111.57 18.2295C112.289 18.2258 113 18.0894 113.663 17.8281C114.326 17.5668 114.927 17.1857 115.433 16.7067C115.939 16.2276 116.34 15.66 116.611 15.0361C116.883 14.4123 117.021 13.7445 117.017 13.0708L117.011 12.154C117.004 10.7939 116.42 9.49264 115.389 8.53639C114.357 7.58014 112.962 7.04721 111.51 7.05483L106.482 7.08162C106.422 7.08201 106.362 7.09425 106.307 7.11765C106.251 7.14105 106.201 7.17514 106.159 7.21799C106.116 7.26083 106.083 7.31159 106.06 7.36735C106.038 7.42312 106.026 7.48281 106.027 7.54301Z" fill="black"/>
<path d="M176.342 23.8258L176.337 36.7746C176.337 36.8937 176.276 36.9532 176.155 36.9532H170.235C170.139 36.9532 170.092 36.9056 170.092 36.8103V1.54485C170.092 1.44761 170.141 1.39701 170.24 1.39304C175.318 1.26405 179.455 1.24619 182.653 1.33946C187.616 1.48234 192.204 3.78932 193.441 8.84978C194.782 14.3389 192.784 20.1049 187.306 22.2809C187.271 22.2945 187.24 22.3162 187.214 22.3443C187.189 22.3724 187.171 22.4061 187.161 22.4428C187.151 22.4794 187.149 22.518 187.156 22.5555C187.164 22.593 187.179 22.6284 187.202 22.6589L198.035 36.7716C198.125 36.8907 198.095 36.9502 197.946 36.9502L190.777 36.9562C190.66 36.9562 190.566 36.9086 190.494 36.8133L180.868 23.793C180.834 23.7477 180.79 23.7109 180.74 23.6855C180.689 23.6602 180.633 23.6471 180.577 23.6472L176.527 23.6442C176.404 23.6442 176.342 23.7047 176.342 23.8258ZM187.122 13.431C187.857 10.1685 185.867 7.45964 182.504 7.19769C180.779 7.06076 178.765 7.07068 176.461 7.22746C176.378 7.23341 176.337 7.27806 176.337 7.36141V17.4704C176.339 17.5895 176.398 17.653 176.515 17.6609C180.223 17.9497 186.06 18.1342 187.122 13.431Z" fill="black"/>
<path d="M208.527 7.1858L197.301 7.18282C197.262 7.18282 197.224 7.16714 197.196 7.13923C197.168 7.11132 197.152 7.07346 197.152 7.03399L197.161 1.51213C197.161 1.47265 197.177 1.43479 197.205 1.40688C197.233 1.37897 197.271 1.36329 197.31 1.36329L226.422 1.34543C226.462 1.34543 226.5 1.36111 226.527 1.38902C226.555 1.41693 226.571 1.45479 226.571 1.49427L226.583 7.03399C226.583 7.07346 226.567 7.11132 226.539 7.13923C226.511 7.16714 226.474 7.18282 226.434 7.18282H215.146C215.107 7.18282 215.069 7.1985 215.041 7.22642C215.013 7.25433 214.997 7.29219 214.997 7.33166L214.994 36.8044C214.994 36.8439 214.979 36.8817 214.951 36.9096C214.923 36.9376 214.885 36.9532 214.846 36.9532L208.821 36.9562C208.782 36.9562 208.744 36.9405 208.716 36.9126C208.688 36.8847 208.672 36.8469 208.672 36.8074L208.675 7.33464C208.675 7.29516 208.66 7.25731 208.632 7.22939C208.604 7.20148 208.566 7.1858 208.527 7.1858Z" fill="black"/>
<path d="M5.51912 62.5949C6.85728 61.306 4.14825 60.2641 3.42862 59.8742C2.05181 59.133 1.13294 57.8024 1.92691 56.3199C2.97067 54.3791 5.5102 54.4535 7.12194 55.6859C7.1623 55.7172 7.18891 55.7629 7.19612 55.8135C7.20334 55.8641 7.1906 55.9155 7.1606 55.9568L6.44691 56.951C6.43433 56.9687 6.41824 56.9835 6.39966 56.9947C6.38107 57.0058 6.36039 57.013 6.3389 57.0158C6.31742 57.0186 6.29558 57.017 6.27477 57.0109C6.25396 57.0049 6.23461 56.9946 6.21794 56.9808C5.44478 56.3418 4.60719 56.2396 3.70517 56.6742C3.612 56.7178 3.5436 56.7863 3.49999 56.8796C2.66438 58.6567 6.01275 59.1449 6.96136 60.1361C8.51065 61.7614 7.13086 64.1547 5.05523 64.4345C3.62786 64.627 2.44136 64.2024 1.49573 63.1605C1.46432 63.1256 1.44646 63.0806 1.44537 63.0336C1.44427 62.9866 1.46003 62.9408 1.48978 62.9045L2.20644 62.0353C2.2897 61.9361 2.37594 61.9331 2.46515 62.0264C3.12531 62.717 4.6746 63.4105 5.51912 62.5949Z" fill="black"/>
<path d="M48.0991 59.6449C48.0991 60.9373 47.5863 62.1768 46.6733 63.0906C45.7604 64.0045 44.5223 64.5179 43.2312 64.5179C41.9401 64.5179 40.702 64.0045 39.7891 63.0906C38.8762 62.1768 38.3633 60.9373 38.3633 59.6449C38.3633 59.005 38.4892 58.3714 38.7338 57.7802C38.9785 57.1889 39.337 56.6518 39.7891 56.1993C40.2411 55.7468 40.7777 55.3878 41.3683 55.1429C41.9589 54.8981 42.5919 54.772 43.2312 54.772C43.8705 54.772 44.5035 54.8981 45.0941 55.1429C45.6847 55.3878 46.2213 55.7468 46.6733 56.1993C47.1254 56.6518 47.4839 57.1889 47.7286 57.7802C47.9732 58.3714 48.0991 59.005 48.0991 59.6449ZM43.5313 62.9038C44.3601 62.84 45.1287 62.4367 45.668 61.7826C46.2072 61.1285 46.473 60.2773 46.4068 59.4162C46.374 58.9898 46.2607 58.5738 46.0734 58.1919C45.8861 57.8101 45.6284 57.4699 45.315 57.1907C45.0016 56.9115 44.6388 56.6989 44.2471 56.5649C43.8554 56.431 43.4426 56.3783 43.0322 56.4099C42.2034 56.4737 41.4348 56.877 40.8956 57.5311C40.3563 58.1852 40.0905 59.0364 40.1567 59.8976C40.1895 60.324 40.3028 60.7399 40.4901 61.1218C40.6774 61.5036 40.9351 61.8439 41.2485 62.123C41.5619 62.4022 41.9248 62.6148 42.3164 62.7488C42.7081 62.8827 43.121 62.9354 43.5313 62.9038Z" fill="black"/>
<path d="M99.9247 58.4721C97.5785 56.6235 100.246 53.9057 102.432 55.0577C104.02 55.8942 103.755 57.5165 102.551 58.5822C102.515 58.614 102.493 58.6578 102.489 58.7048C102.484 58.7518 102.498 58.7984 102.527 58.8352L104.082 60.8326C104.096 60.8498 104.114 60.8632 104.135 60.8716C104.155 60.8799 104.177 60.8828 104.199 60.8802C104.221 60.8775 104.242 60.8692 104.26 60.8563C104.278 60.8433 104.293 60.8259 104.302 60.8058C104.637 60.0696 104.823 59.2966 104.861 58.487C104.867 58.3738 104.925 58.3173 105.037 58.3173L106.211 58.3143C106.328 58.3123 106.385 58.3709 106.381 58.4899C106.325 59.8017 105.933 61.0003 105.203 62.0858C105.144 62.1732 105.147 62.2595 105.212 62.3448L106.586 64.1428C106.598 64.1595 106.606 64.1794 106.608 64.2003C106.61 64.2212 106.607 64.2423 106.597 64.2612C106.588 64.28 106.574 64.2959 106.556 64.3071C106.538 64.3182 106.518 64.3242 106.497 64.3243L104.965 64.3422C104.923 64.3421 104.882 64.3333 104.845 64.3164C104.807 64.2994 104.774 64.2747 104.748 64.244L104.073 63.4611C104.016 63.3936 103.952 63.3877 103.883 63.4432C102.919 64.2132 101.868 64.5168 100.728 64.3541C98.8364 64.0832 97.5101 62.6246 98.2506 60.6451C98.5568 59.8295 99.2349 59.2371 99.9247 58.6983C100.022 58.6229 100.022 58.5475 99.9247 58.4721ZM102.021 56.8289C102.021 56.6315 101.943 56.4422 101.803 56.3027C101.664 56.1631 101.475 56.0847 101.278 56.0847C101.081 56.0847 100.892 56.1631 100.752 56.3027C100.613 56.4422 100.534 56.6315 100.534 56.8289C100.534 57.0263 100.613 57.2156 100.752 57.3551C100.892 57.4947 101.081 57.5731 101.278 57.5731C101.475 57.5731 101.664 57.4947 101.803 57.3551C101.943 57.2156 102.021 57.0263 102.021 56.8289ZM102.97 61.94L101.233 59.6181C101.205 59.5802 101.163 59.5552 101.116 59.5485C101.069 59.5418 101.021 59.554 100.983 59.5824L100.808 59.7134C100.589 59.8774 100.397 60.0726 100.242 60.2879C100.087 60.5031 99.973 60.7341 99.9062 60.9678C99.8393 61.2014 99.821 61.433 99.8523 61.6493C99.8835 61.8657 99.9637 62.0626 100.088 62.2287L100.145 62.3061C100.396 62.6407 100.812 62.8302 101.302 62.833C101.791 62.8358 102.314 62.6516 102.756 62.321L102.934 62.19C102.972 62.1616 102.997 62.1193 103.004 62.0724C103.01 62.0255 102.998 61.9779 102.97 61.94Z" fill="black"/>
<path d="M124.826 56.695C122.007 55.3138 119.56 58.0554 120.55 60.7195C121.374 62.9313 123.792 63.3182 125.719 62.1424C125.816 62.0829 125.887 62.1047 125.933 62.2079L126.388 63.2289C126.441 63.348 126.418 63.4512 126.319 63.5385C125.142 64.5595 123.131 64.6727 121.755 64.2113C118.409 63.092 117.502 58.4751 119.997 56.0788C121.618 54.5249 124.068 54.4624 126.016 55.543C126.046 55.5592 126.072 55.5813 126.093 55.6078C126.114 55.6342 126.13 55.6646 126.139 55.6971C126.148 55.7297 126.151 55.7636 126.146 55.7969C126.142 55.8303 126.131 55.8624 126.114 55.8913L125.567 56.826C125.505 56.9311 125.418 56.9599 125.305 56.9123C125.143 56.8428 124.983 56.7704 124.826 56.695Z" fill="black"/>
<path d="M159.389 62.0353C160.144 62.7229 162.033 63.6248 162.678 62.2585C163.002 61.5739 162.401 61.0023 161.801 60.666C160.882 60.148 159.329 59.5616 158.863 58.5614C158.393 57.5523 158.577 56.3169 159.404 55.5698C160.656 54.4386 162.502 54.6887 163.885 55.5311C163.931 55.5585 163.97 55.595 164 55.6384C164.031 55.6818 164.052 55.7311 164.063 55.7831C164.074 55.8351 164.073 55.8888 164.062 55.9407C164.051 55.9927 164.029 56.0417 163.998 56.0848L163.463 56.817C163.384 56.9242 163.285 56.949 163.168 56.8915C162.33 56.4727 161.604 56.3596 160.992 56.5521C160.57 56.6831 160.336 56.955 160.29 57.3677C160.177 58.4036 161.732 58.8859 162.482 59.252C163.846 59.9128 164.878 60.8714 164.432 62.4818C163.722 65.0626 159.993 64.8691 158.446 63.2111C158.345 63.1019 158.342 62.9908 158.437 62.8777L159.118 62.0531C159.202 61.9539 159.292 61.9479 159.389 62.0353Z" fill="black"/>
<path d="M182.781 61.8775C183.076 61.3793 183.219 60.7403 183.209 59.9604C183.183 58.3054 183.169 56.6473 183.167 54.9863C183.167 54.8811 183.221 54.8275 183.328 54.8255L184.657 54.8166C184.758 54.8146 184.811 54.8652 184.815 54.9684C184.894 56.9093 184.881 58.8451 184.776 60.7761C184.725 61.7286 184.425 62.5284 183.878 63.1753C182.724 64.5327 180.444 64.756 178.927 63.9255C177.684 63.2448 177.062 62.0957 177.062 60.4784C177.062 58.6765 177.08 56.8726 177.116 55.0667C177.118 54.9516 177.176 54.894 177.291 54.894L178.558 54.9C178.689 54.9 178.755 54.9645 178.755 55.0935C178.755 56.8696 178.772 58.6388 178.808 60.401C178.824 61.2027 179.089 61.8249 179.602 62.2674C180.545 63.083 182.097 63.0265 182.781 61.8775Z" fill="black"/>
<path d="M140.04 61.9519L139.189 64.0356C139.138 64.1606 139.045 64.2241 138.91 64.2261L137.673 64.247C137.648 64.2474 137.623 64.2416 137.601 64.2301C137.579 64.2187 137.56 64.202 137.546 64.1815C137.532 64.161 137.523 64.1375 137.521 64.113C137.519 64.0886 137.523 64.064 137.533 64.0416L141.336 55.3346C141.413 55.1589 141.54 55.0096 141.7 54.9052C141.861 54.8009 142.049 54.7461 142.241 54.7477C142.432 54.7493 142.619 54.8072 142.778 54.9141C142.937 55.0211 143.061 55.1725 143.135 55.3495L146.781 64.0565C146.831 64.1755 146.791 64.2351 146.662 64.2351L145.291 64.244C145.24 64.2441 145.191 64.2288 145.148 64.2002C145.106 64.1716 145.073 64.1309 145.053 64.0832L144.176 61.9489C144.155 61.8979 144.119 61.8543 144.074 61.8236C144.028 61.7928 143.975 61.7764 143.92 61.7763L140.298 61.7792C140.174 61.7792 140.087 61.8368 140.04 61.9519ZM140.837 60.2581C140.83 60.2735 140.827 60.2905 140.828 60.3073C140.829 60.3242 140.835 60.3405 140.844 60.3547C140.853 60.3689 140.866 60.3806 140.88 60.3887C140.895 60.3968 140.912 60.401 140.929 60.401L143.388 60.4219C143.405 60.4221 143.421 60.4182 143.436 60.4105C143.451 60.4028 143.464 60.3915 143.473 60.3776C143.483 60.3637 143.489 60.3477 143.49 60.331C143.492 60.3143 143.49 60.2975 143.483 60.2819L142.279 57.3112C142.271 57.2925 142.258 57.2765 142.242 57.2653C142.225 57.254 142.205 57.248 142.185 57.248C142.165 57.248 142.145 57.254 142.129 57.2653C142.112 57.2765 142.099 57.2925 142.092 57.3112L140.837 60.2581Z" fill="black"/>
<path d="M199.296 61.8834L198.383 64.119C198.37 64.1496 198.349 64.1757 198.321 64.1942C198.294 64.2128 198.261 64.2228 198.228 64.2232L196.929 64.241C196.9 64.2414 196.872 64.2347 196.847 64.2214C196.822 64.2082 196.801 64.1888 196.785 64.1651C196.769 64.1414 196.76 64.1141 196.757 64.0857C196.755 64.0574 196.76 64.0289 196.771 64.0029L200.708 54.9982C200.722 54.9682 200.743 54.9426 200.771 54.9247C200.798 54.9067 200.83 54.8971 200.863 54.897L202.05 54.8911C202.083 54.8908 202.116 54.9006 202.144 54.9191C202.172 54.9377 202.194 54.9642 202.207 54.9952L205.987 64.0118C205.998 64.0378 206.003 64.0663 206.001 64.0947C205.998 64.123 205.989 64.1503 205.973 64.174C205.957 64.1977 205.936 64.2171 205.911 64.2304C205.886 64.2436 205.858 64.2504 205.829 64.2499L204.437 64.2261C204.404 64.2255 204.371 64.2151 204.344 64.196C204.316 64.1769 204.295 64.1501 204.283 64.119L203.373 61.8864C203.36 61.8558 203.339 61.8296 203.311 61.8111C203.284 61.7926 203.251 61.7826 203.218 61.7822L199.451 61.7763C199.417 61.7769 199.385 61.7873 199.357 61.8064C199.329 61.8255 199.308 61.8523 199.296 61.8834ZM200.134 60.2671C200.128 60.2811 200.125 60.2965 200.126 60.3119C200.127 60.3274 200.132 60.3423 200.14 60.3553C200.149 60.3683 200.16 60.3791 200.174 60.3865C200.187 60.394 200.202 60.398 200.218 60.398L202.704 60.4218C202.719 60.4219 202.733 60.4182 202.747 60.4113C202.76 60.4044 202.771 60.3943 202.78 60.382C202.788 60.3697 202.794 60.3555 202.795 60.3407C202.797 60.3259 202.795 60.3108 202.79 60.2968L201.58 57.2933C201.573 57.2756 201.562 57.2603 201.547 57.2494C201.531 57.2385 201.513 57.2324 201.494 57.2321C201.476 57.2318 201.457 57.2372 201.442 57.2476C201.426 57.258 201.414 57.2729 201.407 57.2903L200.134 60.2671Z" fill="black"/>
<path d="M21.9188 61.1511L21.9218 64.1428C21.9218 64.1676 21.9169 64.1923 21.9075 64.2152C21.898 64.2382 21.8842 64.259 21.8667 64.2764C21.8493 64.2939 21.8286 64.3076 21.8059 64.3169C21.7832 64.3261 21.7589 64.3307 21.7345 64.3303L20.5301 64.3243C20.4112 64.3223 20.3517 64.2618 20.3517 64.1428L20.3428 55.1887C20.3427 55.1342 20.3637 55.0817 20.4014 55.0423C20.4391 55.0029 20.4905 54.9797 20.545 54.9774C22.5314 54.9119 25.74 54.5874 26.4329 57.0373C27.2863 60.0646 24.5149 61.1511 22.0913 60.9904C22.0692 60.9887 22.0471 60.9917 22.0262 60.999C22.0053 61.0064 21.9862 61.0179 21.97 61.033C21.9538 61.0481 21.9409 61.0664 21.9321 61.0867C21.9233 61.1071 21.9188 61.129 21.9188 61.1511ZM21.9129 56.7336L21.9188 59.115C21.9192 59.1479 21.9261 59.1803 21.939 59.2105C21.9519 59.2407 21.9706 59.268 21.9941 59.291C22.0176 59.3139 22.0453 59.332 22.0758 59.3442C22.1062 59.3564 22.1388 59.3625 22.1716 59.3621L23.3075 59.3591C23.7128 59.3574 24.1009 59.2141 24.3864 58.9607C24.6719 58.7072 24.8315 58.3644 24.8301 58.0077V57.8172C24.8294 57.6404 24.7891 57.4656 24.7116 57.3026C24.6341 57.1396 24.5209 56.9917 24.3784 56.8673C24.2359 56.7429 24.0669 56.6445 23.8811 56.5776C23.6954 56.5108 23.4964 56.4768 23.2956 56.4776L22.1597 56.4806C22.1269 56.481 22.0945 56.4879 22.0643 56.5008C22.0342 56.5137 22.0069 56.5325 21.9839 56.5559C21.961 56.5794 21.9429 56.6072 21.9308 56.6377C21.9186 56.6682 21.9125 56.7008 21.9129 56.7336Z" fill="black"/>
<path d="M62.3846 61.1005L62.3905 64.2172C62.3905 64.2669 62.3708 64.3146 62.3356 64.3498C62.3005 64.385 62.2528 64.4047 62.2032 64.4047L60.9542 64.4107C60.861 64.4107 60.8145 64.365 60.8145 64.2737V55.1947C60.8145 55.0816 60.871 55.021 60.984 55.0131C62.6234 54.9099 63.9081 54.9307 64.8378 55.0756C67.5885 55.5043 67.8294 59.3681 65.3731 60.5022C65.3542 60.5106 65.3376 60.5233 65.3244 60.5393C65.3112 60.5553 65.3018 60.5742 65.2969 60.5945C65.2921 60.6149 65.2918 60.6361 65.2963 60.6568C65.3007 60.6774 65.3097 60.6968 65.3226 60.7136L67.9899 64.1934C68.0049 64.2133 68.0139 64.2369 68.0162 64.2617C68.0184 64.2865 68.0137 64.3114 68.0026 64.3337C67.9915 64.3559 67.9744 64.3746 67.9533 64.3877C67.9321 64.4008 67.9077 64.4077 67.8829 64.4077L66.292 64.4047C66.2469 64.4047 66.2023 64.3939 66.162 64.3732C66.1217 64.3525 66.0867 64.3225 66.06 64.2857L63.6811 61.0737C63.6097 60.9805 63.5156 60.9309 63.3986 60.9249L62.6076 60.8862C62.5789 60.8846 62.5502 60.8889 62.5232 60.899C62.4962 60.909 62.4715 60.9245 62.4506 60.9446C62.4297 60.9647 62.4131 60.9889 62.4017 61.0157C62.3904 61.0425 62.3845 61.0714 62.3846 61.1005ZM62.3786 56.683L62.3905 59.0347C62.3913 59.0863 62.4123 59.1355 62.449 59.1717C62.4858 59.2079 62.5352 59.2282 62.5868 59.2282L63.5265 59.2252C63.7518 59.2241 63.9748 59.1884 64.1826 59.1202C64.3904 59.0519 64.579 58.9525 64.7376 58.8275C64.8961 58.7025 65.0216 58.5544 65.1066 58.3918C65.1917 58.2292 65.2348 58.0551 65.2333 57.8797V57.8023C65.2305 57.4493 65.048 57.1119 64.7258 56.8641C64.4036 56.6164 63.968 56.4785 63.5146 56.4806L62.5749 56.4836C62.5488 56.4836 62.5231 56.4888 62.4991 56.4988C62.4751 56.5089 62.4533 56.5236 62.435 56.5422C62.4168 56.5608 62.4024 56.5828 62.3927 56.6069C62.383 56.6311 62.3782 56.657 62.3786 56.683Z" fill="black"/>
<path d="M81.5536 56.5134L78.8713 56.5104C78.8326 56.5104 78.7956 56.495 78.7683 56.4677C78.7409 56.4403 78.7256 56.4032 78.7256 56.3645V55.1173C78.7256 55.0786 78.7409 55.0415 78.7683 55.0142C78.7956 54.9868 78.8326 54.9714 78.8713 54.9714L86.2431 54.9893C86.2817 54.9893 86.3188 55.0047 86.3461 55.032C86.3734 55.0594 86.3888 55.0965 86.3888 55.1352L86.3858 56.3288C86.3858 56.367 86.3709 56.4037 86.3442 56.4309C86.3175 56.4582 86.2812 56.4739 86.2431 56.4747L83.5459 56.5193C83.5078 56.5201 83.4715 56.5358 83.4448 56.5631C83.4181 56.5904 83.4032 56.627 83.4032 56.6652L83.3794 64.1547C83.3794 64.1929 83.3645 64.2295 83.3378 64.2568C83.3111 64.2841 83.2748 64.2998 83.2367 64.3006L81.8866 64.3244C81.8672 64.3248 81.848 64.3213 81.8299 64.3141C81.8119 64.307 81.7955 64.2963 81.7817 64.2827C81.7678 64.2691 81.7568 64.2529 81.7493 64.235C81.7418 64.2171 81.7379 64.1979 81.7379 64.1785L81.6993 56.6592C81.6993 56.6401 81.6955 56.6211 81.6882 56.6034C81.6809 56.5857 81.6701 56.5697 81.6566 56.5561C81.6431 56.5426 81.627 56.5318 81.6093 56.5245C81.5916 56.5172 81.5727 56.5134 81.5536 56.5134Z" fill="black"/>
<path d="M220.139 62.8062L223.996 62.8419C224.035 62.8419 224.073 62.8576 224.101 62.8855C224.129 62.9134 224.145 62.9513 224.145 62.9908L224.142 64.1338C224.142 64.1728 224.127 64.2102 224.099 64.238C224.072 64.2659 224.035 64.2819 223.996 64.2827L218.48 64.3422C218.46 64.3426 218.44 64.3391 218.422 64.3317C218.404 64.3244 218.387 64.3135 218.373 64.2997C218.359 64.2858 218.347 64.2693 218.34 64.251C218.332 64.2328 218.328 64.2132 218.328 64.1934L218.322 55.1173C218.322 55.0778 218.338 55.04 218.366 55.012C218.394 54.9841 218.432 54.9684 218.471 54.9684L219.836 54.9625C219.875 54.9625 219.913 54.9782 219.941 55.0061C219.969 55.034 219.985 55.0719 219.985 55.1113L219.99 62.6574C219.99 62.6968 220.006 62.7347 220.034 62.7626C220.062 62.7905 220.1 62.8062 220.139 62.8062Z" fill="black"/>
</g>
<defs>
<clipPath id="clip0_187_10913">
<rect width="226" height="64" fill="white" transform="translate(0.666016 0.5)"/>
</clipPath>
</defs>
</svg>
