<svg width="182" height="65" viewBox="0 0 182 65" fill="none" xmlns="http://www.w3.org/2000/svg">
<rect width="182" height="65" fill="#3D3D3D"/>
<g id="&#208;&#147;&#208;&#187;&#208;&#176;&#208;&#178;&#208;&#189;&#208;&#176;&#209;&#143; &#209;&#129;&#209;&#130;&#209;&#128;&#208;&#176;&#208;&#189;&#208;&#184;&#209;&#134;&#208;&#176; // &#208;&#157;&#208;&#176;&#209;&#136;&#208;&#184; &#208;&#186;&#208;&#187;&#208;&#184;&#208;&#181;&#208;&#189;&#209;&#130;&#209;&#139;">
<path d="M-532 -2511C-532 -2512.1 -531.105 -2513 -530 -2513H10724C10725.1 -2513 10726 -2512.1 10726 -2511V3914C10726 3915.1 10725.1 3916 10724 3916H-530C-531.105 3916 -532 3915.1 -532 3914V-2511Z" fill="#757575"/>
<g id="&#208;&#147;&#208;&#187;&#208;&#176;&#208;&#178;&#208;&#189;&#208;&#176;&#209;&#143;" clip-path="url(#clip0_185_3296)">
<rect width="1440" height="5856" transform="translate(-222 -2353)" fill="#FCFCFC"/>
<g id="Frame 18850">
<g id="Frame 2087326236">
<g id="Frame 2087326235">
<g id="Frame 18697">
<g id="Frame 18690">
<g id="Pasted-20231031-140510 1" clip-path="url(#clip1_185_3296)">
<path id="Vector" d="M109.426 0.673588V63.3434C109.426 63.3623 109.419 63.3803 109.405 63.3937C109.392 63.407 109.373 63.4145 109.354 63.4145H97.0648C97.0458 63.4145 97.0276 63.407 97.0141 63.3937C97.0007 63.3803 96.9932 63.3623 96.9932 63.3434V0.673588C96.9932 0.654729 97.0007 0.636641 97.0141 0.623305C97.0276 0.609969 97.0458 0.602478 97.0648 0.602478H109.354C109.373 0.602478 109.392 0.609969 109.405 0.623305C109.419 0.636641 109.426 0.654729 109.426 0.673588Z" fill="#FF052B"/>
<path id="Vector_2" d="M129.355 0.602478H117.033C117.002 0.602478 116.977 0.627765 116.977 0.658953V63.3622C116.977 63.3934 117.002 63.4187 117.033 63.4187H129.355C129.386 63.4187 129.412 63.3934 129.412 63.3622V0.658953C129.412 0.627765 129.386 0.602478 129.355 0.602478Z" fill="#FF052B"/>
<path id="Vector_3" d="M89.7834 41.9034C89.7834 47.9036 87.3831 53.658 83.1105 57.9008C78.8379 62.1436 73.043 64.5272 67.0006 64.5272C60.9582 64.5272 55.1633 62.1436 50.8907 57.9008C46.6181 53.658 44.2178 47.9036 44.2178 41.9034C44.2178 35.9032 46.6181 30.1487 50.8907 25.906C55.1633 21.6632 60.9582 19.2796 67.0006 19.2796C73.043 19.2796 78.8379 21.6632 83.1105 25.906C87.3831 30.1487 89.7834 35.9032 89.7834 41.9034ZM67.0666 53.624C68.5751 53.6162 70.0673 53.3051 71.4578 52.7087C72.8484 52.1122 74.1102 51.242 75.1711 50.1477C76.2321 49.0534 77.0714 47.7564 77.6412 46.3309C78.211 44.9054 78.5 43.3792 78.4919 41.8395C78.4755 38.7299 77.2495 35.7539 75.0837 33.5663C72.9179 31.3787 69.9896 30.1586 66.943 30.1744C65.4345 30.1822 63.9424 30.4933 62.5518 31.0898C61.1612 31.6862 59.8994 32.5565 58.8385 33.6508C57.7776 34.745 56.9382 36.042 56.3685 37.4675C55.7987 38.893 55.5096 40.4192 55.5177 41.9589C55.5341 45.0686 56.7601 48.0445 58.9259 50.2321C61.0918 52.4198 64.0201 53.6399 67.0666 53.624Z" fill="#FF052B"/>
<path id="Vector_4" d="M171.054 60.6161C168.287 62.7606 165.129 64.0134 161.578 64.3745C157.812 64.7594 154.21 64.2936 150.771 62.9774C137.481 57.8929 132.346 41.9703 139.688 29.9965C141.096 27.6986 142.977 25.6657 145.331 23.8976C151.965 18.9115 160.691 17.918 168.364 21.072C168.415 21.0929 168.559 21.1243 168.798 21.1661C169.118 21.2205 169.129 21.3816 169.341 21.4903C174.091 23.9011 177.486 27.479 179.525 32.2239C180.018 33.3701 180.44 34.6968 180.793 36.2041C181.18 37.8633 181.415 39.3566 181.498 40.6841C181.599 42.3029 181.751 43.9238 181.751 45.5322C181.754 51.4567 181.755 57.3812 181.753 63.3057C181.753 63.3797 181.717 63.4166 181.644 63.4166L171.488 63.4187C171.459 63.4187 171.432 63.4076 171.412 63.3877C171.391 63.3678 171.379 63.3407 171.378 63.312L171.3 60.7311C171.3 60.7033 171.291 60.6762 171.276 60.6529C171.261 60.6295 171.239 60.6109 171.213 60.599C171.188 60.5871 171.159 60.5824 171.131 60.5854C171.103 60.5884 171.076 60.599 171.054 60.6161ZM159.109 53.6304C160.617 53.6278 162.111 53.322 163.503 52.7305C164.896 52.1389 166.161 51.2732 167.226 50.1828C168.29 49.0924 169.134 47.7986 169.709 46.3753C170.284 44.9521 170.578 43.4271 170.576 41.8877C170.57 38.7786 169.355 35.7989 167.196 33.6042C165.038 31.4095 162.114 30.1795 159.068 30.1847C157.559 30.1873 156.066 30.4932 154.673 31.0847C153.281 31.6762 152.016 32.5419 150.951 33.6323C149.886 34.7228 149.042 36.0166 148.468 37.4398C147.893 38.8631 147.598 40.388 147.601 41.9275C147.607 45.0366 148.822 48.0162 150.98 50.211C153.138 52.4057 156.062 53.6357 159.109 53.6304Z" fill="#FF052B"/>
<path id="Vector_5" d="M23.3009 30.1366L3.21404 30.1387C3.07783 30.1387 3.00973 30.0704 3.00973 29.9337L3.02658 20.5763C3.02658 20.5331 3.04389 20.4916 3.0747 20.461C3.10551 20.4304 3.1473 20.4132 3.19087 20.4132L42.5306 20.409C42.6037 20.4087 42.6755 20.4284 42.7382 20.4658C42.8008 20.5032 42.852 20.5569 42.8861 20.6212C42.9201 20.6854 42.9358 20.7577 42.9315 20.8302C42.9271 20.9026 42.9028 20.9725 42.8613 21.0323L20.7903 52.9549C20.7704 52.9838 20.7587 53.0176 20.7567 53.0526C20.7547 53.0876 20.7623 53.1224 20.7788 53.1534C20.7953 53.1844 20.82 53.2104 20.8502 53.2285C20.8805 53.2466 20.9151 53.2561 20.9504 53.2561C27.5428 53.2561 34.1191 53.2421 40.6792 53.2142C40.8519 53.2142 41.0253 53.208 41.1995 53.1954C41.2669 53.1898 41.3006 53.2205 41.3006 53.2874L41.3027 63.3078C41.3027 63.3803 41.2669 63.4166 41.1952 63.4166L1.19629 63.4145C1.15074 63.4146 1.10609 63.4022 1.06713 63.3788C1.02817 63.3554 0.996377 63.3218 0.975159 63.2816C0.953942 63.2414 0.944102 63.1961 0.946696 63.1506C0.94929 63.1051 0.96422 63.0611 0.989883 63.0234L23.4968 30.5068C23.6667 30.26 23.6014 30.1366 23.3009 30.1366Z" fill="#FF052B"/>
</g>
<rect x="-101.5" y="-24.5" width="385.667" height="114" stroke="#E2E1E3"/>
</g>
</g>
</g>
</g>
</g>
</g>
</g>
<defs>
<clipPath id="clip0_185_3296">
<rect width="1440" height="5856" fill="white" transform="translate(-222 -2353)"/>
</clipPath>
<clipPath id="clip1_185_3296">
<rect width="180.923" height="64" fill="white" transform="translate(0.87207 0.5)"/>
</clipPath>
</defs>
</svg>
