<svg width="150" height="32" viewBox="0 0 150 32" fill="none" xmlns="http://www.w3.org/2000/svg">
<g clip-path="url(#clip0_193_522)">
<path d="M18.4891 11.0635C18.2586 10.6687 18.011 10.284 17.7462 9.90926C15.7107 7.02392 13.6907 4.12675 11.6859 1.21777C11.5654 1.04224 11.287 0.903941 11.0494 0.898621C8.01749 0.832428 5.6351 0.840702 3.90224 0.923444C3.4377 0.945903 3.03699 1.11198 2.70011 1.42167C2.09727 1.97841 1.94479 3.28337 1.94834 4.04224C1.95661 5.77155 1.94715 7.47545 1.91997 9.15394C1.91921 9.19089 1.92778 9.22743 1.94488 9.26019C1.96199 9.29295 1.98707 9.32088 2.01782 9.34138C2.04857 9.36188 2.084 9.37429 2.12082 9.37748C2.15763 9.38067 2.19466 9.37452 2.22848 9.35961C3.85968 8.64508 5.35437 7.31529 6.79763 6.27274C7.73202 5.59898 9.20543 5.42167 9.60791 6.78515C9.75567 7.28869 9.69184 7.71186 9.41642 8.05465C9.19893 8.32652 8.78699 8.70359 8.18061 9.18586C6.34018 10.6492 4.43061 12.0162 2.45188 13.2869C2.10909 13.508 1.9377 13.8395 1.9377 14.2816C1.93533 18.9364 1.95011 23.5907 1.98202 28.2444C1.99798 30.4678 3.115 31.1043 5.18061 31.1096C9.58486 31.1191 13.9761 31.1049 18.3544 31.0671C18.4584 31.0671 18.4832 31.0221 18.4288 30.9323C17.9678 30.1717 17.5157 29.427 16.9749 28.6788C15.8827 27.1634 14.826 25.6238 13.8047 24.06C13.7716 24.0091 13.7255 23.9766 13.6664 23.9625C13.1381 23.8312 12.3455 24.3206 11.9395 24.6309C11.0529 25.3082 10.1499 25.9607 9.23025 26.5883C8.9182 26.8011 8.64396 26.9418 8.40756 27.0103C6.56181 27.5476 5.52281 25.482 6.87741 24.2621C8.19479 23.0759 9.8916 22.31 11.1185 21.2355C11.3526 21.0298 11.3863 20.8029 11.2498 20.5351C10.9353 19.9122 10.5665 19.3224 10.1434 18.7656C9.58072 18.0245 9.04113 17.268 8.52458 16.4961C7.98557 15.6894 7.98734 14.4483 8.87564 13.9323C10.1168 13.2107 11.0671 14.4483 11.7214 15.2993C11.9282 15.5688 12.1842 15.9435 12.4891 16.4234C13.7196 18.3561 14.8532 20.0281 15.8898 21.4394C16.3106 22.0127 16.6617 22.502 16.943 22.9075C17.5033 23.7184 17.8467 24.2113 17.9732 24.3862C19.5287 26.5233 20.8526 28.4288 21.9448 30.1025C22.3526 30.7266 22.732 31.1025 23.5352 31.1025C25.1723 31.1025 26.8089 31.099 28.4448 31.0919C30.6168 31.0812 31.6966 30.7781 31.9324 28.466C32.131 26.5239 32.1652 24.599 32.0352 22.6912C32.0337 22.6708 32.0273 22.6511 32.0165 22.6338C32.0056 22.6165 31.9908 22.6021 31.9732 22.5918C31.9556 22.5815 31.9357 22.5757 31.9153 22.5747C31.8949 22.5738 31.8746 22.5779 31.8561 22.5866C30.4927 23.2461 29.4182 24.0564 27.7107 25.3773C26.9767 25.9447 26.3615 26.1947 25.4873 26.0883C24.5281 25.9731 24.1363 25.2479 24.3827 24.3437C24.5163 23.8543 24.6912 23.5263 24.9076 23.3596C26.1392 22.4081 27.9779 21.1628 30.4235 19.6238C31.0122 19.2526 31.4034 18.9187 31.5973 18.622C31.8869 18.1776 32.0334 17.661 32.037 17.0724C32.0583 14.0736 32.0648 11.0747 32.0565 8.07593C32.0547 6.85252 32.1912 5.24791 32.131 3.82061C32.0547 1.97309 31.7125 0.964224 29.7054 0.935855C25.0541 0.872026 20.4584 0.858432 15.9182 0.895075C15.6759 0.897439 15.6191 1.00087 15.748 1.20536C17.1239 3.3933 18.5571 5.50264 20.0476 7.53337C20.4838 8.12794 21.0222 8.20063 21.6629 7.75146C22.8071 6.94768 23.9336 6.11848 25.0423 5.26387C25.4288 4.966 25.7994 4.96068 26.2498 4.8082C26.303 4.79085 26.3598 4.78962 26.4129 4.80465C27.5139 5.12025 28.2622 6.27628 27.5015 7.29756C27.2829 7.58952 27.0027 7.85666 26.6611 8.09898C25.5039 8.91812 24.3343 9.72191 23.1522 10.5103C22.8278 10.7266 22.6451 10.9518 22.7994 11.3383C22.9992 11.8372 23.3006 12.336 23.7037 12.8348C24.5264 13.8525 25.3863 14.9039 25.9129 16.1061C26.0524 16.4229 26.1014 16.6971 26.06 16.9288C25.9146 17.7479 25.0494 18.2142 24.2657 18.1468C24.0045 18.1244 23.7291 18.0168 23.4395 17.8242C23.0884 17.5901 22.8585 17.3939 22.7498 17.2355C21.4956 15.4045 20.2391 13.5747 18.9803 11.7461C18.8154 11.5086 18.6026 11.2568 18.4891 11.0635Z" stroke="#76D5CF" stroke-width="0.35461"/>
<path d="M147.179 25.9961L148.274 26.0741C148.356 26.08 148.381 26.0451 148.349 25.9695L147.867 24.8276" stroke="#070707" stroke-width="0.35461"/>
<path d="M147.866 24.8277C146.564 22.401 145.246 19.982 143.914 17.5706C143.829 17.417 143.769 17.1924 143.733 16.8969C143.668 16.3543 144.205 15.2125 144.473 14.7267C145.726 12.4513 146.933 10.1492 148.095 7.82064C148.103 7.80552 148.106 7.78872 148.105 7.77184C148.105 7.75495 148.1 7.73854 148.091 7.72416C148.082 7.70978 148.069 7.6979 148.055 7.68966C148.04 7.68141 148.023 7.67706 148.006 7.67703L143.662 7.66284C143.614 7.6628 143.567 7.67585 143.526 7.70055C143.485 7.72526 143.452 7.76067 143.43 7.80291L139.987 14.4696C139.968 14.506 139.94 14.5367 139.905 14.5585C139.871 14.5802 139.831 14.5923 139.79 14.5934C139.749 14.5945 139.708 14.5845 139.672 14.5646C139.637 14.5447 139.607 14.5156 139.586 14.4802C138.287 12.3005 137.093 10.0641 136.005 7.771C135.974 7.70717 135.923 7.67525 135.852 7.67525L131.43 7.67171C131.369 7.67171 131.346 7.70185 131.363 7.76213C131.541 8.41698 131.743 8.94594 131.967 9.34901C133.067 11.3183 134.151 13.2964 135.221 15.2834C136.029 16.787 135.583 17.3987 134.772 18.9235C133.551 21.2231 132.115 23.4164 131.171 25.8543C131.109 26.0186 131.165 26.1008 131.34 26.1008L135.634 26.0937C135.692 26.0933 135.748 26.0757 135.796 26.0431C135.843 26.0106 135.88 25.9646 135.902 25.9111C136.877 23.4625 138.302 21.1167 139.455 18.7462C139.465 18.7245 139.481 18.7059 139.501 18.6921C139.52 18.6783 139.543 18.6697 139.567 18.6672C139.591 18.6647 139.615 18.6684 139.637 18.6779C139.659 18.6874 139.678 18.7023 139.693 18.7214C139.921 19.0192 140.109 19.3118 140.256 19.599C141.288 21.6002 142.301 23.5984 143.295 25.5937C143.35 25.7041 143.435 25.7971 143.539 25.8625C143.644 25.9279 143.764 25.9631 143.888 25.9643L147.178 25.9962" stroke="#070707" stroke-width="0.35461"/>
<path d="M147.867 24.8277C147.697 24.8726 147.574 24.9825 147.5 25.1574C147.475 25.2165 147.437 25.2278 147.385 25.1911C147.228 25.0824 147.122 24.9778 147.069 24.8773C146.402 23.6007 145.739 22.3229 145.078 21.044C144.727 20.3649 144.209 19.567 143.832 18.7904C143.238 17.5688 142.849 16.7904 143.378 15.6042C143.716 14.843 144.051 14.08 144.383 13.3152C144.476 13.0989 144.626 12.8265 144.832 12.4979C145.167 11.9606 145.34 11.3879 145.732 10.8791C146.159 10.3259 146.478 9.71418 146.688 9.04396C146.706 8.98959 146.735 8.94231 146.777 8.90212C146.807 8.87257 146.833 8.84774 146.853 8.82765C146.902 8.77865 146.935 8.71606 146.948 8.64795C146.961 8.57983 146.954 8.50929 146.926 8.44542C146.899 8.38154 146.853 8.32724 146.794 8.28951C146.736 8.25177 146.667 8.23233 146.598 8.23368C146.161 8.24609 145.784 8.13793 145.346 8.22127C145.062 8.27446 144.777 8.31228 144.491 8.33474C144.176 8.35838 143.94 8.43581 143.784 8.56701C143.521 8.78805 143.37 9.0676 143.33 9.40566C143.275 9.87257 143.125 10.2573 142.878 10.5599C142.842 10.6037 142.817 10.6533 142.801 10.7089C142.716 11.0174 142.59 11.3064 142.424 11.5759C142.395 11.6208 142.249 11.7709 141.986 12.0262C141.79 12.2165 141.648 12.4825 141.56 12.8241C141.384 13.518 140.999 14.2201 140.404 14.9305C139.794 15.661 138.966 14.6468 138.674 14.1362C138.043 13.0357 137.407 11.937 136.766 10.8401C136.459 10.3152 136.034 9.38439 135.505 8.71772C135.271 8.42517 135.011 8.40035 134.663 8.38262C133.953 8.34715 133.233 8.30046 132.504 8.24254C132.452 8.23862 132.4 8.24901 132.354 8.27257C132.308 8.29613 132.269 8.33196 132.242 8.37612C132.215 8.42028 132.2 8.47105 132.2 8.52287C132.2 8.57469 132.214 8.62554 132.241 8.66985C132.688 9.41571 133.142 10.187 133.603 10.9837C133.712 11.1728 133.984 11.7201 134.42 12.6255C134.689 13.1811 135.043 13.8093 135.484 14.5103C135.59 14.6781 135.767 15.0416 136.014 15.6007C136.367 16.4003 136.422 17.0617 136.099 17.8294C135.773 18.606 135.318 19.3986 134.734 20.2071C134.538 20.479 134.359 20.8448 134.199 21.3046C134.091 21.6107 133.917 21.9459 133.677 22.3099C133.47 22.6243 133.289 22.9494 133.133 23.2851C132.84 23.9163 132.229 24.6149 132.156 25.3011C132.15 25.3661 132.18 25.3968 132.245 25.3933C133.015 25.3448 133.954 25.3407 135.062 25.3808C135.784 25.4074 135.688 24.6769 135.922 24.2727C136.284 23.6438 136.619 23.0014 136.929 22.3454C137.115 21.9518 137.373 21.489 137.704 20.9571C138.17 20.2053 138.399 19.4518 138.752 18.6929C138.881 18.4175 139.065 18.2414 139.305 18.1645C139.748 18.0239 140.113 18.1787 140.399 18.6291C140.865 19.3631 141.443 20.4399 142.135 21.8596C142.329 22.2579 142.465 22.6025 142.544 22.8933C142.557 22.9429 142.583 22.9855 142.621 23.0209C142.683 23.08 142.735 23.1515 142.775 23.2355C143.071 23.8749 143.355 24.4878 143.626 25.0741C143.677 25.185 143.764 25.2751 143.873 25.3293C143.983 25.3836 144.108 25.3986 144.227 25.372C144.746 25.2561 145.284 25.2691 145.842 25.411C146.199 25.5032 146.518 25.4216 146.879 25.5014C146.903 25.5063 146.924 25.5182 146.94 25.5355C146.956 25.5528 146.966 25.5747 146.97 25.5981C146.973 25.6216 146.969 25.6454 146.958 25.6665C146.947 25.6876 146.93 25.7049 146.91 25.716L146.858 25.7425C146.805 25.7709 146.808 25.7916 146.867 25.8046C147.177 25.8743 147.281 25.9382 147.179 25.9961" stroke="#070707" stroke-width="0.35461"/>
<path d="M50.916 12.7835C50.9503 12.7397 51.0094 12.7379 51.0933 12.7781" stroke="#070707" stroke-width="0.35461"/>
<path d="M51.0938 12.7781C51.2982 13.0547 51.446 13.2952 51.537 13.4997C53.2415 17.3437 54.9028 21.206 56.5211 25.0866C56.6605 25.4199 56.8219 25.7084 57.0051 25.9519C57.0349 25.991 57.0734 26.0227 57.1177 26.0445C57.162 26.0663 57.2108 26.0777 57.2604 26.0777L62.7799 26.0973C62.917 26.0984 63.0193 26.0393 63.0867 25.9199C63.1422 25.823 63.1694 25.667 63.1682 25.4519C63.1328 19.5913 63.1156 13.7533 63.1168 7.93768C63.1168 7.89955 63.102 7.8629 63.0756 7.83545C63.0491 7.808 63.0131 7.79189 62.975 7.79051L59.3207 7.65931C59.2581 7.65694 59.2261 7.68709 59.225 7.74973C59.1558 11.8473 59.4218 16.349 59.1629 21.0281" stroke="#070707" stroke-width="0.35461"/>
<path d="M59.1628 21.0281C59.1297 21.1084 59.0422 21.0635 58.9004 20.8933" stroke="#070707" stroke-width="0.35461"/>
<path d="M58.8998 20.8933L53.0576 7.96773C53.018 7.88003 52.954 7.80561 52.8732 7.7534C52.7923 7.70119 52.6982 7.67342 52.6019 7.6734L46.9441 7.67163C46.9079 7.67163 46.8732 7.68583 46.8476 7.7111C46.822 7.73637 46.8076 7.77064 46.8076 7.80638V25.8064C46.8076 25.842 46.8215 25.8762 46.8463 25.9017C46.8712 25.9272 46.905 25.942 46.9406 25.9429L50.719 26.0404C50.8573 26.044 50.9264 25.976 50.9264 25.8365L50.9158 12.7833" stroke="#070707" stroke-width="0.35461"/>
<path d="M58.9006 20.8933C58.8438 21.0056 58.751 21.047 58.6222 21.0174C58.1328 20.9039 57.413 19.4163 57.2889 19.0192C57.0075 18.1161 56.6754 17.3088 56.2924 16.5972C55.9573 15.9731 55.7357 15.3348 55.4112 14.7142C55.0838 14.0877 54.8574 13.6232 54.7321 13.3206C54.1387 11.8986 53.5182 10.4884 52.8704 9.0901C52.6695 8.65866 52.4147 8.42934 52.1062 8.40216C50.6476 8.2745 49.2043 8.24672 47.7764 8.31882C47.5684 8.32946 47.4703 8.4388 47.4821 8.64684C47.5507 9.82887 47.5678 11.0275 47.5335 12.2426C47.4142 16.5665 47.4159 20.8726 47.5389 25.161C47.5398 25.1955 47.5485 25.2292 47.5644 25.2598C47.5803 25.2903 47.603 25.3169 47.6306 25.3374C47.6583 25.3579 47.6903 25.3718 47.7242 25.3781C47.758 25.3844 47.7929 25.3829 47.8261 25.3738C48.5353 25.1799 49.2416 25.2036 49.9449 25.4447C49.9868 25.4592 50.0315 25.4634 50.0754 25.457C50.1193 25.4506 50.1609 25.4337 50.1969 25.4078C50.2329 25.3819 50.2621 25.3477 50.2821 25.3082C50.3021 25.2686 50.3124 25.2249 50.3119 25.1805C50.2711 21.5848 50.358 18.2621 50.2268 14.5475C50.2103 14.0877 50.241 13.5812 50.319 13.028C50.3509 12.8029 50.5264 12.6238 50.7357 12.5795C50.7995 12.5665 50.8397 12.5907 50.8562 12.6522C50.874 12.7195 50.8941 12.7633 50.9165 12.7834" stroke="#070707" stroke-width="0.35461"/>
<path d="M51.094 12.778C51.0763 12.6988 51.0846 12.635 51.1188 12.5865C51.1356 12.5631 51.1591 12.5455 51.1864 12.536C51.2137 12.5265 51.2433 12.5256 51.2713 12.5333C51.6082 12.6255 51.8458 12.8377 51.9841 13.1698C52.2453 13.7916 52.5332 14.4003 52.8476 14.9961C53.0308 15.3424 53.1939 15.7431 53.3369 16.1982C53.493 16.6923 53.685 17.171 53.9132 17.6344C54.2252 18.2644 54.4439 18.7289 54.5692 19.028C54.8446 19.6876 55.1466 20.3347 55.4752 20.9695C55.6726 21.3513 55.8606 21.7827 56.0391 22.2638C56.2022 22.7047 56.3872 23.1379 56.594 23.5634C56.8222 24.0327 57.0136 24.4748 57.1685 24.8897C57.2018 24.9775 57.2596 25.0539 57.3351 25.1098C57.4105 25.1657 57.5003 25.1989 57.594 25.2053L62.0692 25.4854C62.1233 25.4888 62.1774 25.4811 62.2284 25.4628C62.2794 25.4445 62.3261 25.4159 62.3656 25.3789C62.4051 25.3418 62.4366 25.2971 62.4582 25.2474C62.4798 25.1978 62.4911 25.1442 62.4912 25.09C62.5077 19.9553 62.4936 14.801 62.4486 9.62728C62.4451 9.24962 62.6047 8.21061 61.922 8.31522C61.3322 8.40387 60.743 8.40742 60.1543 8.32586C60.0888 8.31664 60.0223 8.33235 59.968 8.36983C59.9138 8.40731 59.8758 8.4638 59.8618 8.52799C59.8216 8.71002 59.8038 8.91392 59.8086 9.13969C59.883 12.6704 59.9049 16.2017 59.8742 19.7337C59.8706 20.1911 59.7849 20.5782 59.6171 20.895C59.5943 20.9362 59.5571 20.9677 59.5125 20.9837C59.3493 21.0416 59.2329 21.0564 59.1632 21.028" stroke="#070707" stroke-width="0.35461"/>
<path d="M73.0049 17.9856L79.7886 18.0086C79.934 18.0098 80.0067 17.9371 80.0067 17.7905L79.9996 16.0068" stroke="#070707" stroke-width="0.35461"/>
<path d="M79.9993 16.0069L80.0011 15.3934C80.0022 15.2563 79.9337 15.1877 79.7954 15.1877L72.1677 15.2444C71.9857 15.2456 71.8882 15.1552 71.8752 14.9732C71.7877 13.6363 71.7842 12.2988 71.8645 10.9608C71.8664 10.9211 71.8836 10.8836 71.9127 10.8562C71.9417 10.8288 71.9804 10.8135 72.0206 10.8136L80.462 10.8756C80.7138 10.878 80.8397 10.7533 80.8397 10.5015L80.845 7.9643C80.845 7.92681 80.8377 7.88969 80.8234 7.85506C80.8092 7.82043 80.7883 7.78896 80.7619 7.76245C80.7356 7.73594 80.7043 7.71491 80.6699 7.70057C80.6355 7.68622 80.5986 7.67884 80.5613 7.67884L67.3308 7.67529C67.3073 7.67529 67.2848 7.68482 67.2682 7.70178C67.2515 7.71874 67.2422 7.74174 67.2422 7.76572L67.2475 25.8952C67.2475 25.9394 67.2649 25.9819 67.296 26.0137C67.3271 26.0454 67.3695 26.064 67.4142 26.0654C71.8728 26.1753 76.3297 26.141 80.7847 25.9625C80.8557 25.9602 80.8911 25.9235 80.8911 25.8526L80.8894 22.9944C80.8893 22.9808 80.8867 22.9673 80.8815 22.9547C80.8763 22.9421 80.8687 22.9307 80.8591 22.9211C80.8495 22.9115 80.8382 22.904 80.8257 22.8989C80.8133 22.8939 80.7999 22.8914 80.7865 22.8916L72.1287 22.9395C72.0685 22.9395 72.0108 22.9158 71.9682 22.8735C71.9257 22.8313 71.9018 22.774 71.9018 22.7143L71.8947 18.1292C71.8947 18.1072 71.899 18.0855 71.9076 18.0653C71.9161 18.045 71.9285 18.0267 71.9442 18.0113C71.9599 17.996 71.9785 17.9839 71.9989 17.9758C72.0193 17.9677 72.0412 17.9638 72.0631 17.9643L73.0046 17.9856" stroke="#070707" stroke-width="0.35461"/>
<path d="M80 16.0067C79.9574 16.0575 79.9125 16.0888 79.8652 16.1006C79.7955 16.1184 79.7511 16.0924 79.7322 16.0226L79.6879 15.8577C79.669 15.7856 79.6223 15.7519 79.5478 15.7567C78.7659 15.7974 78.0868 15.5989 77.4308 15.6999C77.3729 15.7094 77.3161 15.7052 77.2606 15.6875C76.8894 15.5693 76.6382 15.5297 76.507 15.5687C76.0762 15.6946 75.7535 15.5935 75.3421 15.5829C75.2015 15.5794 75.0608 15.5758 74.9202 15.5723C74.7334 15.5687 74.5242 15.587 74.2925 15.6272C73.6625 15.7348 73.0271 15.7667 72.3865 15.723C72.0709 15.7017 71.5975 15.7265 71.4521 15.3932C70.9202 14.1804 71.2659 12.1786 71.3687 10.8347C71.3811 10.6805 71.451 10.5364 71.565 10.4302C71.679 10.3241 71.829 10.2635 71.9858 10.2602L79.8492 10.0918C79.8989 10.0906 79.9355 10.0681 79.9592 10.0244C80.0845 9.79034 80.13 9.54507 80.0957 9.28857C80.0531 8.97651 80.0065 8.75016 79.9556 8.60949C79.8611 8.34826 79.6276 8.2206 79.2553 8.22651C75.5177 8.27852 71.8203 8.29625 68.1631 8.27971C68.118 8.27973 68.0735 8.28919 68.0323 8.30748C67.9911 8.32576 67.9542 8.35247 67.924 8.38587C67.8938 8.41927 67.8709 8.45864 67.8568 8.50143C67.8427 8.54422 67.8377 8.58949 67.8422 8.63432C67.8953 9.168 68 9.68396 68.0141 10.1964C68.1453 14.8311 67.8262 19.4481 67.9113 24.0847C67.9166 24.4145 67.8475 24.7691 67.8351 25.1095C67.8341 25.1446 67.8401 25.1795 67.8527 25.2122C67.8653 25.245 67.8843 25.2749 67.9085 25.3003C67.9328 25.3257 67.9618 25.346 67.9939 25.3601C68.026 25.3742 68.0606 25.3819 68.0957 25.3825C69.3581 25.4056 70.6187 25.4641 71.8617 25.4428C73.8877 25.4074 75.9137 25.3849 77.9397 25.3755C78.1418 25.3743 78.3947 25.3477 78.6985 25.2957C79.0673 25.2318 80.0248 25.363 79.9929 24.7779C79.9893 24.7141 80.0094 24.6591 80.0531 24.613C80.2364 24.4227 80.2943 24.197 80.2269 23.9357C80.2193 23.906 80.2021 23.8797 80.178 23.861C80.1538 23.8423 80.1242 23.8324 80.0939 23.8329C79.9781 23.8353 79.9113 23.7874 79.8936 23.6893C79.8853 23.6385 79.8552 23.613 79.8031 23.613C77.5053 23.6284 75.2068 23.5977 72.9078 23.5208C72.1347 23.496 71.4255 23.5297 71.4166 22.6184C71.406 21.6916 71.3717 20.7661 71.3138 19.8418C71.2836 19.3737 71.2624 18.0457 71.5088 17.6786C71.8351 17.1893 72.6879 17.2212 73.1826 17.3311C73.244 17.3453 73.2931 17.3784 73.3297 17.4304C73.4042 17.538 73.5047 17.6213 73.6312 17.6804C73.656 17.6922 73.6619 17.71 73.6489 17.7336C73.6394 17.7537 73.63 17.775 73.6205 17.7974C73.6158 17.8093 73.6182 17.8199 73.6276 17.8294L73.6737 17.8755C73.6815 17.8831 73.6867 17.893 73.6889 17.9037C73.691 17.9144 73.6899 17.9255 73.6858 17.9355C73.6816 17.9456 73.6745 17.9542 73.6654 17.9602C73.6563 17.9663 73.6456 17.9695 73.6347 17.9694L73.0053 17.9854" stroke="#070707" stroke-width="0.35461"/>
<path d="M84.3965 25.8774L87.0507 25.9537" stroke="#070707" stroke-width="0.35461"/>
<path d="M87.0507 25.9536L97.4018 26.0493C97.4164 26.0496 97.4309 26.047 97.4444 26.0416C97.458 26.0363 97.4703 26.0284 97.4807 26.0183C97.4911 26.0082 97.4994 25.9962 97.505 25.983C97.5106 25.9698 97.5135 25.9555 97.5135 25.9412L97.5188 22.8862C97.5188 22.8635 97.5143 22.841 97.5056 22.82C97.4968 22.799 97.484 22.78 97.4678 22.764C97.4517 22.748 97.4325 22.7354 97.4114 22.7268C97.3904 22.7183 97.3678 22.714 97.3451 22.7142L89.1128 22.7391C88.9532 22.7391 88.8734 22.6593 88.8734 22.4997L88.8699 7.76388C88.8699 7.70596 88.8409 7.677 88.783 7.677H84.6199C84.4733 7.677 84.4 7.75029 84.4 7.89686L84.3965 25.8774" stroke="#070707" stroke-width="0.35461"/>
<path d="M87.0507 25.9537C86.702 25.9631 86.4048 25.8881 86.1589 25.7285C86.1022 25.6919 86.1033 25.657 86.1624 25.6239C86.2499 25.5766 86.2871 25.5151 86.2741 25.4395C86.2576 25.3461 86.2966 25.3 86.3912 25.3012L96.5135 25.4501C96.6065 25.4516 96.6963 25.4162 96.7633 25.3518C96.8304 25.2874 96.8693 25.1991 96.8717 25.1062C96.8823 24.6718 96.9603 24.0867 96.6518 23.7303C96.5029 23.5601 96.3256 23.4141 96.1199 23.2923C96.0691 23.2616 96.0141 23.2486 95.955 23.2533C95.6205 23.2781 95.2883 23.2687 94.9585 23.225C94.5348 23.1682 94.1093 23.2781 93.6642 23.1469C93.6087 23.1304 93.5525 23.131 93.4958 23.1487C93.2901 23.2137 93.0791 23.2474 92.8628 23.2498C92.0401 23.2604 91.218 23.2616 90.3965 23.2533C90.0295 23.2516 89.4798 23.1398 88.971 23.2356C88.9161 23.2459 88.8593 23.2358 88.8114 23.2072C88.1784 22.842 88.2387 21.9572 88.2954 21.2959C88.3403 20.7805 88.3539 20.3591 88.3362 20.0317C88.2558 18.4714 88.2257 16.9094 88.2458 15.3455C88.2741 13.1623 88.3137 11.0423 88.3646 8.98559C88.3665 8.90107 88.3517 8.817 88.321 8.73819C88.2904 8.65938 88.2446 8.58737 88.1861 8.52629C88.1277 8.4652 88.0578 8.41623 87.9804 8.38217C87.903 8.34811 87.8197 8.32963 87.7351 8.32779L85.2582 8.27105C85.2247 8.27033 85.1914 8.27635 85.1603 8.28875C85.1292 8.30115 85.101 8.31967 85.0773 8.34319C85.0536 8.36672 85.0349 8.39476 85.0225 8.42563C85.01 8.45651 85.0039 8.48957 85.0046 8.52283L85.1181 14.4785C85.1193 14.5089 85.1132 14.5398 85.1004 14.5689C85.0141 14.7651 84.9751 14.9052 84.9834 14.9891C85.0507 15.6221 84.9124 16.2586 84.9461 16.8526C84.9851 17.5382 84.968 18.3213 84.8947 19.2019C84.8214 20.0695 84.8474 21.1038 84.9727 22.3047C85.046 22.9951 85.0082 23.6789 84.8592 24.3562C84.8451 24.4188 84.809 24.4637 84.7511 24.4909C84.6672 24.5311 84.614 24.5955 84.5915 24.6842C84.575 24.7468 84.5844 24.8042 84.6199 24.8562C84.6423 24.8881 84.6488 24.9241 84.6394 24.9643C84.6323 24.9974 84.6252 25.0122 84.6181 25.0086L84.5738 24.9838C84.5301 24.9602 84.5052 24.9732 84.4993 25.0228L84.3965 25.8774" stroke="#070707" stroke-width="0.35461"/>
<path d="M104.42 22.6912C104.337 22.6274 104.296 22.5281 104.296 22.3933C104.299 17.521 104.303 12.648 104.307 7.77452C104.307 7.70951 104.274 7.677 104.209 7.677H99.8898C99.8166 7.677 99.7799 7.71365 99.7799 7.78693L99.7764 25.8508C99.7764 25.91 99.7999 25.9668 99.8418 26.0087C99.8837 26.0506 99.9405 26.0742 99.9998 26.0742L112.645 26.0919C112.727 26.0931 112.768 26.0529 112.768 25.9713V22.8242C112.768 22.7556 112.733 22.7213 112.665 22.7213L104.532 22.7284C104.491 22.7284 104.452 22.7154 104.42 22.6912Z" stroke="#070707" stroke-width="0.35461"/>
<path d="M122.078 18.0936L127.684 18.0244C127.812 18.0232 127.876 17.9588 127.876 17.8312L127.872 15.3755C127.872 15.3515 127.868 15.3278 127.858 15.3056C127.849 15.2835 127.836 15.2633 127.819 15.2464C127.802 15.2294 127.782 15.2159 127.76 15.2068C127.737 15.1976 127.714 15.1929 127.69 15.1929L119.926 15.2337C119.885 15.2339 119.844 15.2261 119.807 15.2106C119.769 15.1952 119.734 15.1725 119.706 15.1438C119.677 15.1151 119.654 15.081 119.638 15.0435C119.623 15.0059 119.615 14.9657 119.615 14.9251L119.622 10.9003C119.623 10.8735 119.628 10.8471 119.638 10.8224C119.649 10.7978 119.664 10.7754 119.683 10.7567C119.702 10.7379 119.724 10.7231 119.749 10.713C119.773 10.703 119.8 10.698 119.826 10.6982L128.477 10.7195C128.498 10.7197 128.518 10.7157 128.538 10.7076C128.557 10.6996 128.574 10.6876 128.589 10.6725C128.603 10.6574 128.614 10.6394 128.622 10.6198C128.629 10.6001 128.632 10.5791 128.631 10.5581L128.512 7.94287C128.511 7.90633 128.495 7.87178 128.468 7.8466C128.442 7.82142 128.406 7.80761 128.369 7.80812L127.316 7.81876" stroke="#070707" stroke-width="0.35461"/>
<path d="M127.315 7.81888L115.344 7.66994C115.331 7.6697 115.318 7.67196 115.306 7.67658C115.295 7.68119 115.284 7.68808 115.275 7.69683C115.266 7.70558 115.258 7.71602 115.254 7.72754C115.249 7.73905 115.246 7.75142 115.246 7.76391L115.248 26.0157C115.248 26.0665 115.273 26.0919 115.324 26.0919L128.299 26.0902C128.535 26.0902 128.652 25.9731 128.652 25.7391L128.654 23.0192C128.654 22.9542 128.621 22.9217 128.556 22.9217C125.716 22.9217 122.876 22.9253 120.035 22.9323C119.737 22.9335 119.581 22.7834 119.567 22.482C119.498 21.1073 119.537 19.7462 119.684 18.3987C119.692 18.3232 119.727 18.2533 119.783 18.202C119.839 18.1507 119.911 18.1216 119.987 18.1203L122.078 18.0937" stroke="#070707" stroke-width="0.35461"/>
<path d="M127.315 7.81885C127.21 7.88741 127.11 7.95005 127.014 8.00679C126.913 8.06707 126.803 8.0984 126.684 8.10076C125.847 8.1114 125.011 8.12854 124.175 8.15218C123.815 8.16282 123.333 8.2036 122.73 8.27452C122.153 8.34308 121.669 8.3679 121.276 8.34899C119.539 8.26625 117.83 8.24793 116.15 8.29403C116.073 8.29588 116 8.32807 115.946 8.38374C115.892 8.4394 115.861 8.51411 115.861 8.5919L115.865 25.2852C115.865 25.3726 115.906 25.4051 115.989 25.3827L116.331 25.2923C116.341 25.2899 116.351 25.2887 116.361 25.2887C120.107 25.3927 123.853 25.4217 127.599 25.3756C127.654 25.375 127.708 25.3632 127.758 25.3411C127.808 25.3189 127.854 25.2868 127.891 25.2467C127.928 25.2066 127.957 25.1593 127.976 25.1077C127.995 25.0561 128.003 25.0013 128 24.9465L127.939 23.9305C127.936 23.8606 127.905 23.7948 127.855 23.7466C127.804 23.6984 127.736 23.6716 127.666 23.6717C127.115 23.6699 126.579 23.5369 126.055 23.5458C124.199 23.573 122.342 23.5795 120.484 23.5653C119.737 23.56 119.165 23.4376 119.047 22.6345C118.952 21.9772 118.891 21.1534 118.867 20.1628C118.847 19.3809 119.021 18.6149 119.145 17.8614C119.192 17.5777 119.36 17.4341 119.647 17.4305L121.2 17.4128C121.256 17.4116 121.308 17.4235 121.358 17.4483C121.514 17.5275 121.655 17.625 121.782 17.7408C121.823 17.7787 121.871 17.8047 121.927 17.8188L122.475 17.9571C122.615 17.9938 122.614 18.0216 122.469 18.0405L122.078 18.0937" stroke="#070707" stroke-width="0.35461"/>
<path d="M105.068 23.1344C104.6 23.3791 104.103 23.239 103.82 22.8437C103.682 22.6522 103.613 22.3478 103.61 21.9305C103.594 19.2444 103.685 16.4625 103.658 13.8844C103.642 12.2763 103.538 10.6557 103.662 9.05288C103.681 8.81883 103.614 8.61789 103.461 8.45004C103.447 8.4344 103.431 8.42178 103.412 8.41293C103.393 8.40409 103.372 8.39922 103.351 8.39862L100.648 8.31529C100.576 8.31335 100.507 8.33944 100.455 8.3879C100.403 8.43636 100.372 8.50328 100.369 8.57415C100.187 12.6829 100.164 16.7869 100.3 20.8862C100.36 22.6699 100.385 24.164 100.373 25.3685C100.372 25.424 100.399 25.45 100.454 25.4465C101.733 25.3389 103.012 25.3123 104.289 25.3667C105.808 25.4329 106.823 25.4619 107.332 25.4536C108.837 25.4299 110.362 25.388 111.908 25.3277C111.943 25.3266 111.978 25.3184 112.009 25.3036C112.041 25.2888 112.069 25.2676 112.093 25.2415C112.116 25.2153 112.134 25.1846 112.145 25.1513C112.156 25.1179 112.161 25.0827 112.158 25.0476L112.064 23.8259C112.06 23.7704 112.033 23.729 111.984 23.7018C111.591 23.4831 111.304 23.3732 111.125 23.372C109.944 23.3673 108.762 23.3638 107.578 23.3614C107.246 23.3614 106.878 23.3177 106.474 23.2302C106.089 23.1468 105.373 22.9766 105.068 23.1344Z" stroke="#070707" stroke-width="0.35461"/>
<path d="M18.4891 11.0633C18.6026 11.2565 18.8154 11.5083 18.9803 11.7459C20.2391 13.5745 21.4956 15.4043 22.7498 17.2353C22.8585 17.3937 23.0884 17.5899 23.4395 17.8239C23.7291 18.0166 24.0045 18.1241 24.2657 18.1466C25.0494 18.214 25.9146 17.7477 26.06 16.9285C26.1014 16.6968 26.0524 16.4226 25.9129 16.1058C25.3863 14.9037 24.5264 13.8523 23.7037 12.8345C23.3006 12.3357 22.9992 11.8369 22.7994 11.3381C22.6451 10.9516 22.8278 10.7264 23.1522 10.5101C24.3343 9.72166 25.5039 8.91788 26.6611 8.09873C27.0027 7.85641 27.2829 7.58928 27.5015 7.29731C28.2622 6.27604 27.5139 5.12001 26.4129 4.80441C26.3598 4.78937 26.303 4.79061 26.2498 4.80795C25.7994 4.96043 25.4288 4.96575 25.0423 5.26363C23.9336 6.11824 22.8071 6.94743 21.6629 7.75121C21.0222 8.20039 20.4838 8.12769 20.0476 7.53313C18.5571 5.5024 17.1239 3.39306 15.748 1.20511C15.6191 1.00062 15.6759 0.897195 15.9182 0.894831C20.4584 0.858188 25.0541 0.871781 29.7054 0.935611C31.7125 0.96398 32.0547 1.97285 32.131 3.82036C32.1912 5.24767 32.0547 6.85228 32.0565 8.07568C32.0648 11.0745 32.0583 14.0733 32.037 17.0721C32.0334 17.6608 31.8869 18.1773 31.5973 18.6218C31.4034 18.9185 31.0122 19.2524 30.4235 19.6236C27.9779 21.1626 26.1392 22.4078 24.9076 23.3594C24.6912 23.526 24.5163 23.854 24.3827 24.3434C24.1363 25.2477 24.5281 25.9728 25.4873 26.0881C26.3615 26.1945 26.9767 25.9445 27.7107 25.3771C29.4182 24.0562 30.4927 23.2459 31.8561 22.5863C31.8746 22.5776 31.8949 22.5736 31.9153 22.5745C31.9357 22.5754 31.9556 22.5813 31.9732 22.5916C31.9908 22.6019 32.0056 22.6163 32.0165 22.6336C32.0273 22.6509 32.0337 22.6706 32.0352 22.6909C32.1652 24.5987 32.131 26.5237 31.9324 28.4658C31.6966 30.7778 30.6168 31.081 28.4448 31.0916C26.8089 31.0987 25.1723 31.1023 23.5352 31.1023C22.732 31.1023 22.3526 30.7264 21.9448 30.1023C20.8526 28.4285 19.5287 26.5231 17.9732 24.386C17.8467 24.211 17.5033 23.7181 16.943 22.9072C16.6617 22.5018 16.3106 22.0124 15.8898 21.4392C14.8532 20.0278 13.7196 18.3558 12.4891 16.4232C12.1842 15.9433 11.9282 15.5686 11.7214 15.2991C11.0671 14.448 10.1168 13.2104 8.87564 13.9321C7.98734 14.448 7.98557 15.6892 8.52458 16.4959C9.04113 17.2678 9.58072 18.0243 10.1434 18.7654C10.5665 19.3221 10.9353 19.912 11.2498 20.5349C11.3863 20.8026 11.3526 21.0296 11.1185 21.2353C9.8916 22.3097 8.19479 23.0757 6.87742 24.2619C5.5228 25.4817 6.56181 27.5473 8.40756 27.0101C8.64396 26.9415 8.9182 26.8009 9.23025 26.5881C10.1499 25.9604 11.0529 25.308 11.9395 24.6306C12.3455 24.3204 13.1381 23.831 13.6664 23.9622C13.7255 23.9764 13.7716 24.0089 13.8047 24.0597C14.826 25.6236 15.8827 27.1632 16.9749 28.6785C17.5157 29.4267 17.9678 30.1714 18.4288 30.9321C18.4832 31.0219 18.4584 31.0668 18.3544 31.0668C13.9761 31.1046 9.58486 31.1188 5.18061 31.1094C3.115 31.1041 1.99798 30.4675 1.98202 28.2441C1.95011 23.5905 1.93533 18.9362 1.9377 14.2814C1.9377 13.8393 2.10909 13.5077 2.45188 13.2867C4.43061 12.016 6.34018 10.649 8.18061 9.18561C8.78699 8.70334 9.19893 8.32627 9.41642 8.05441C9.69184 7.71162 9.75567 7.28845 9.60791 6.7849C9.20543 5.42143 7.73202 5.59873 6.79763 6.27249C5.35437 7.31504 3.85968 8.64483 2.22848 9.35937C2.19466 9.37428 2.15763 9.38042 2.12082 9.37724C2.084 9.37405 2.04857 9.36163 2.01782 9.34113C1.98707 9.32063 1.96199 9.29271 1.94488 9.25995C1.92778 9.22719 1.91921 9.19065 1.91997 9.1537C1.94715 7.47521 1.95661 5.77131 1.94834 4.04199C1.94479 3.28313 2.09727 1.97816 2.70011 1.42143C3.03699 1.11173 3.4377 0.945659 3.90224 0.9232C5.6351 0.840458 8.01749 0.832183 11.0494 0.898377C11.287 0.903696 11.5654 1.04199 11.6859 1.21753C13.6907 4.12651 15.7107 7.02367 17.7462 9.90902C18.011 10.2837 18.2586 10.6685 18.4891 11.0633Z" fill="#76D5CF"/>
<path d="M147.866 24.8275C147.696 24.8724 147.574 24.9823 147.499 25.1573C147.474 25.2164 147.436 25.2276 147.384 25.191C147.227 25.0822 147.122 24.9776 147.068 24.8771C146.402 23.6005 145.738 22.3228 145.077 21.0438C144.726 20.3647 144.209 19.5669 143.831 18.7903C143.237 17.5686 142.849 16.7903 143.377 15.6041C143.715 14.8429 144.05 14.0799 144.382 13.3151C144.476 13.0988 144.625 12.8263 144.831 12.4977C145.166 11.9605 145.34 11.3878 145.732 10.8789C146.158 10.3257 146.477 9.71402 146.687 9.0438C146.705 8.98943 146.735 8.94215 146.776 8.90196C146.807 8.87241 146.832 8.84759 146.852 8.82749C146.901 8.77849 146.935 8.71591 146.948 8.64779C146.961 8.57967 146.953 8.50914 146.926 8.44526C146.898 8.38138 146.852 8.32708 146.794 8.28935C146.735 8.25161 146.666 8.23217 146.597 8.23352C146.161 8.24593 145.783 8.13778 145.345 8.22111C145.061 8.2743 144.776 8.31213 144.49 8.33458C144.175 8.35822 143.939 8.43565 143.783 8.56685C143.521 8.78789 143.369 9.06744 143.329 9.40551C143.275 9.87241 143.124 10.2572 142.877 10.5598C142.841 10.6035 142.816 10.6531 142.801 10.7087C142.716 11.0172 142.59 11.3062 142.423 11.5757C142.395 11.6206 142.249 11.7708 141.985 12.0261C141.789 12.2164 141.647 12.4823 141.56 12.8239C141.383 13.5178 140.998 14.2199 140.404 14.9303C139.794 15.6608 138.966 14.6466 138.673 14.136C138.042 13.0355 137.406 11.9368 136.765 10.8399C136.458 10.3151 136.033 9.38423 135.505 8.71756C135.271 8.42501 135.01 8.40019 134.662 8.38246C133.952 8.347 133.232 8.30031 132.503 8.24239C132.451 8.23846 132.399 8.24885 132.353 8.27241C132.307 8.29598 132.268 8.3318 132.241 8.37596C132.214 8.42012 132.2 8.47089 132.2 8.52271C132.199 8.57453 132.214 8.62538 132.24 8.66969C132.687 9.41555 133.141 10.1868 133.602 10.9835C133.711 11.1726 133.983 11.7199 134.419 12.6254C134.688 13.1809 135.042 13.8092 135.483 14.5101C135.59 14.678 135.766 15.0414 136.013 15.6005C136.366 16.4002 136.421 17.0615 136.099 17.8293C135.772 18.6059 135.317 19.3984 134.733 20.2069C134.537 20.4788 134.359 20.8446 134.198 21.3044C134.09 21.6106 133.917 21.9457 133.677 22.3098C133.47 22.6242 133.288 22.9492 133.132 23.2849C132.84 23.9161 132.228 24.6147 132.155 25.3009C132.149 25.3659 132.179 25.3966 132.244 25.3931C133.015 25.3446 133.954 25.3405 135.061 25.3807C135.783 25.4073 135.687 24.6768 135.921 24.2725C136.283 23.6437 136.619 23.0013 136.928 22.3452C137.114 21.9516 137.372 21.4888 137.703 20.9569C138.169 20.2052 138.398 19.4516 138.751 18.6927C138.88 18.4173 139.064 18.2412 139.304 18.1644C139.748 18.0237 140.112 18.1786 140.398 18.6289C140.864 19.363 141.443 20.4398 142.134 21.8594C142.328 22.2578 142.464 22.6023 142.544 22.8931C142.557 22.9427 142.582 22.9853 142.62 23.0208C142.682 23.0799 142.734 23.1514 142.774 23.2353C143.071 23.8748 143.354 24.4877 143.625 25.0739C143.676 25.1848 143.763 25.2749 143.873 25.3292C143.982 25.3834 144.107 25.3985 144.226 25.3718C144.745 25.256 145.284 25.269 145.841 25.4108C146.198 25.503 146.517 25.4215 146.879 25.5013C146.902 25.5062 146.923 25.5181 146.939 25.5354C146.955 25.5527 146.966 25.5745 146.969 25.598C146.972 25.6214 146.968 25.6453 146.957 25.6664C146.947 25.6874 146.93 25.7047 146.909 25.7158L146.857 25.7424C146.804 25.7708 146.807 25.7914 146.866 25.8044C147.176 25.8742 147.28 25.938 147.178 25.9959L143.888 25.964C143.764 25.9629 143.644 25.9277 143.539 25.8623C143.435 25.7969 143.35 25.7038 143.295 25.5935C142.301 23.5982 141.288 21.6 140.256 19.5988C140.109 19.3115 139.921 19.019 139.693 18.7211C139.678 18.7021 139.659 18.6871 139.637 18.6776C139.615 18.6682 139.591 18.6645 139.567 18.667C139.543 18.6695 139.52 18.678 139.501 18.6919C139.481 18.7057 139.465 18.7243 139.455 18.7459C138.302 21.1165 136.877 23.4622 135.902 25.9108C135.88 25.9644 135.843 26.0104 135.796 26.0429C135.748 26.0754 135.692 26.093 135.634 26.0934L131.34 26.1005C131.165 26.1005 131.109 26.0184 131.171 25.8541C132.115 23.4161 133.551 21.2229 134.772 18.9232C135.583 17.3984 136.029 16.7867 135.221 15.2832C134.151 13.2962 133.067 11.318 131.967 9.34877C131.743 8.9457 131.541 8.41674 131.363 7.76189C131.346 7.70161 131.369 7.67146 131.43 7.67146L135.852 7.67501C135.923 7.67501 135.974 7.70692 136.005 7.77075C137.093 10.0639 138.287 12.3003 139.586 14.48C139.607 14.5153 139.637 14.5445 139.672 14.5644C139.708 14.5843 139.749 14.5942 139.79 14.5931C139.831 14.592 139.871 14.58 139.905 14.5582C139.94 14.5364 139.968 14.5057 139.987 14.4693L143.43 7.80267C143.452 7.76043 143.485 7.72502 143.526 7.70031C143.567 7.6756 143.614 7.66256 143.662 7.6626L148.006 7.67678C148.023 7.67682 148.04 7.68116 148.055 7.68941C148.069 7.69766 148.082 7.70954 148.091 7.72392C148.1 7.7383 148.105 7.75471 148.105 7.77159C148.106 7.78848 148.103 7.80528 148.095 7.8204C146.933 10.149 145.726 12.451 144.473 14.7264C144.205 15.2122 143.668 16.3541 143.733 16.8966C143.769 17.1921 143.829 17.4167 143.914 17.5704C145.246 19.9817 146.564 22.4008 147.866 24.8275Z" fill="#070707"/>
<path d="M58.9008 20.8933C58.8441 21.0056 58.7513 21.0469 58.6224 21.0174C58.1331 20.9039 57.4132 19.4163 57.2891 19.0191C57.0078 18.1161 56.6756 17.3087 56.2926 16.5972C55.9575 15.973 55.7359 15.3348 55.4114 14.7142C55.084 14.0877 54.8576 13.6232 54.7324 13.3206C54.139 11.8986 53.5184 10.4884 52.8707 9.09007C52.6697 8.65863 52.415 8.42931 52.1065 8.40213C50.6478 8.27447 49.2046 8.24669 47.7767 8.31879C47.5686 8.32943 47.4705 8.43877 47.4824 8.64681C47.5509 9.82884 47.568 11.0274 47.5338 12.2426C47.4144 16.5664 47.4162 20.8726 47.5391 25.161C47.54 25.1954 47.5487 25.2292 47.5646 25.2598C47.5805 25.2903 47.6032 25.3168 47.6309 25.3374C47.6586 25.3579 47.6905 25.3718 47.7244 25.3781C47.7583 25.3844 47.7931 25.3829 47.8263 25.3738C48.5355 25.1799 49.2418 25.2035 49.9451 25.4447C49.987 25.4592 50.0318 25.4634 50.0756 25.457C50.1195 25.4505 50.1612 25.4337 50.1971 25.4078C50.2331 25.3819 50.2623 25.3477 50.2824 25.3082C50.3024 25.2686 50.3126 25.2248 50.3121 25.1805C50.2714 21.5848 50.3582 18.2621 50.227 14.5475C50.2105 14.0877 50.2412 13.5812 50.3192 13.028C50.3511 12.8028 50.5267 12.6238 50.7359 12.5794C50.7997 12.5664 50.8399 12.5907 50.8565 12.6521C50.8742 12.7195 50.8943 12.7632 50.9168 12.7833L50.9274 25.8365C50.9274 25.976 50.8582 26.044 50.7199 26.0404L46.9416 25.9429C46.906 25.942 46.8722 25.9272 46.8473 25.9017C46.8225 25.8762 46.8086 25.842 46.8086 25.8064V7.80638C46.8086 7.77064 46.823 7.73637 46.8486 7.7111C46.8742 7.68583 46.9089 7.67163 46.9451 7.67163L52.6029 7.6734C52.6991 7.67342 52.7933 7.70119 52.8741 7.7534C52.955 7.80561 53.019 7.88003 53.0586 7.96773L58.9008 20.8933Z" fill="#070707"/>
<path d="M51.094 12.7779C51.0763 12.6987 51.0846 12.6348 51.1188 12.5864C51.1356 12.563 51.1591 12.5454 51.1864 12.5359C51.2137 12.5264 51.2433 12.5254 51.2713 12.5332C51.6082 12.6254 51.8458 12.8376 51.9841 13.1697C52.2453 13.7915 52.5332 14.4002 52.8476 14.9959C53.0308 15.3423 53.1939 15.743 53.3369 16.1981C53.493 16.6922 53.685 17.1709 53.9132 17.6342C54.2252 18.2643 54.4439 18.7288 54.5692 19.0279C54.8446 19.6874 55.1466 20.3346 55.4752 20.9693C55.6726 21.3511 55.8606 21.7826 56.0391 22.2637C56.2022 22.7046 56.3872 23.1378 56.594 23.5633C56.8222 24.0326 57.0136 24.4747 57.1685 24.8896C57.2018 24.9773 57.2596 25.0537 57.3351 25.1097C57.4105 25.1656 57.5003 25.1987 57.594 25.2052L62.0692 25.4853C62.1233 25.4887 62.1774 25.481 62.2284 25.4627C62.2794 25.4443 62.3261 25.4158 62.3656 25.3787C62.4051 25.3417 62.4366 25.297 62.4582 25.2473C62.4798 25.1976 62.4911 25.1441 62.4912 25.0899C62.5077 19.9552 62.4936 14.8009 62.4486 9.62715C62.4451 9.24949 62.6047 8.21048 61.922 8.31509C61.3322 8.40374 60.743 8.40729 60.1543 8.32573C60.0888 8.31651 60.0223 8.33222 59.968 8.3697C59.9138 8.40718 59.8758 8.46367 59.8618 8.52786C59.8216 8.70989 59.8038 8.91379 59.8086 9.13956C59.883 12.6703 59.9049 16.2016 59.8742 19.7335C59.8706 20.191 59.7849 20.5781 59.6171 20.8949C59.5943 20.9361 59.5571 20.9676 59.5125 20.9835C59.3493 21.0415 59.2329 21.0562 59.1632 21.0279C59.422 16.3488 59.1561 11.847 59.2252 7.74949C59.2264 7.68684 59.2583 7.6567 59.321 7.65906L62.9752 7.79027C63.0133 7.79165 63.0494 7.80776 63.0759 7.83521C63.1023 7.86266 63.1171 7.89931 63.1171 7.93743C63.1159 13.753 63.133 19.5911 63.1685 25.4516C63.1697 25.6667 63.1425 25.8228 63.0869 25.9197C63.0196 26.0391 62.9173 26.0982 62.7802 26.097L57.2607 26.0775C57.2111 26.0775 57.1623 26.0661 57.118 26.0443C57.0737 26.0224 57.0352 25.9907 57.0054 25.9516C56.8222 25.7081 56.6608 25.4197 56.5213 25.0864C54.9031 21.2058 53.2418 17.3435 51.5373 13.4995C51.4463 13.295 51.2985 13.0545 51.094 12.7779Z" fill="#070707"/>
<path d="M80.0003 16.0066C79.9577 16.0574 79.9128 16.0888 79.8655 16.1006C79.7958 16.1183 79.7514 16.0923 79.7325 16.0226L79.6882 15.8577C79.6693 15.7856 79.6226 15.7519 79.5481 15.7566C78.7662 15.7974 78.0871 15.5988 77.4311 15.6999C77.3732 15.7093 77.3165 15.7052 77.2609 15.6875C76.8897 15.5693 76.6386 15.5297 76.5073 15.5687C76.0765 15.6946 75.7538 15.5935 75.3425 15.5828C75.2018 15.5793 75.0611 15.5758 74.9205 15.5722C74.7337 15.5687 74.5245 15.587 74.2928 15.6272C73.6628 15.7347 73.0274 15.7667 72.3868 15.7229C72.0712 15.7016 71.5978 15.7265 71.4524 15.3931C70.9205 14.1804 71.2662 12.1786 71.369 10.8346C71.3814 10.6804 71.4513 10.5363 71.5653 10.4302C71.6793 10.324 71.8293 10.2635 71.9861 10.2602L79.8495 10.0917C79.8992 10.0905 79.9358 10.0681 79.9595 10.0243C80.0848 9.7903 80.1303 9.54502 80.096 9.28852C80.0534 8.97647 80.0068 8.75011 79.9559 8.60945C79.8614 8.34822 79.6279 8.22056 79.2556 8.22647C75.518 8.27848 71.8206 8.29621 68.1634 8.27966C68.1183 8.27969 68.0738 8.28915 68.0326 8.30743C67.9914 8.32572 67.9545 8.35242 67.9243 8.38582C67.8941 8.41923 67.8712 8.45859 67.8571 8.50138C67.843 8.54417 67.838 8.58944 67.8425 8.63427C67.8956 9.16796 68.0003 9.68391 68.0144 10.1963C68.1456 14.8311 67.8265 19.4481 67.9116 24.0846C67.9169 24.4144 67.8478 24.769 67.8354 25.1094C67.8344 25.1445 67.8404 25.1794 67.853 25.2122C67.8657 25.2449 67.8846 25.2748 67.9088 25.3002C67.9331 25.3256 67.9621 25.3459 67.9942 25.3601C68.0263 25.3742 68.0609 25.3818 68.096 25.3825C69.3584 25.4055 70.619 25.4641 71.862 25.4428C73.888 25.4073 75.914 25.3849 77.94 25.3754C78.1421 25.3742 78.3951 25.3476 78.6988 25.2956C79.0676 25.2318 80.0251 25.363 79.9932 24.7779C79.9896 24.7141 80.0097 24.6591 80.0534 24.613C80.2367 24.4227 80.2946 24.1969 80.2272 23.9357C80.2196 23.9059 80.2024 23.8796 80.1783 23.861C80.1541 23.8423 80.1245 23.8324 80.0942 23.8328C79.9784 23.8352 79.9116 23.7873 79.8939 23.6892C79.8856 23.6384 79.8555 23.613 79.8034 23.613C77.5056 23.6284 75.2071 23.5976 72.9081 23.5208C72.135 23.496 71.4258 23.5297 71.4169 22.6183C71.4063 21.6916 71.372 20.7661 71.3141 19.8417C71.2839 19.3736 71.2627 18.0456 71.5091 17.6786C71.8354 17.1892 72.6882 17.2211 73.1829 17.3311C73.2443 17.3453 73.2934 17.3784 73.33 17.4304C73.4045 17.5379 73.505 17.6213 73.6315 17.6804C73.6563 17.6922 73.6622 17.7099 73.6492 17.7336C73.6397 17.7537 73.6303 17.7749 73.6208 17.7974C73.6161 17.8092 73.6185 17.8198 73.6279 17.8293L73.674 17.8754C73.6818 17.8831 73.687 17.8929 73.6892 17.9036C73.6913 17.9143 73.6902 17.9254 73.6861 17.9355C73.6819 17.9456 73.6748 17.9542 73.6657 17.9602C73.6566 17.9662 73.6459 17.9694 73.635 17.9694L73.0056 17.9853L72.0641 17.9641C72.0421 17.9636 72.0203 17.9675 71.9999 17.9756C71.9795 17.9836 71.9609 17.9957 71.9452 18.0111C71.9295 18.0264 71.917 18.0448 71.9085 18.065C71.9 18.0853 71.8956 18.107 71.8956 18.1289L71.9027 22.7141C71.9027 22.7738 71.9267 22.831 71.9692 22.8733C72.0118 22.9155 72.0695 22.9392 72.1297 22.9392L80.7875 22.8914C80.8009 22.8911 80.8142 22.8936 80.8267 22.8987C80.8392 22.9037 80.8505 22.9113 80.8601 22.9208C80.8697 22.9304 80.8773 22.9418 80.8825 22.9544C80.8877 22.967 80.8903 22.9805 80.8903 22.9942L80.8921 25.8524C80.8921 25.9233 80.8566 25.9599 80.7857 25.9623C76.3306 26.1408 71.8738 26.175 67.4152 26.0651C67.3705 26.0637 67.3281 26.0452 67.297 26.0134C67.2659 25.9816 67.2485 25.9391 67.2485 25.8949L67.2432 7.76547C67.2432 7.74149 67.2525 7.71849 67.2691 7.70153C67.2858 7.68458 67.3083 7.67505 67.3318 7.67505L80.5623 7.6786C80.5996 7.6786 80.6365 7.68598 80.6709 7.70032C80.7053 7.71467 80.7366 7.7357 80.7629 7.76221C80.7893 7.78871 80.8102 7.82018 80.8244 7.85482C80.8387 7.88945 80.846 7.92657 80.846 7.96406L80.8407 10.5013C80.8407 10.7531 80.7148 10.8778 80.463 10.8754L72.0215 10.8133C71.9814 10.8133 71.9427 10.8285 71.9136 10.856C71.8846 10.8834 71.8673 10.9208 71.8655 10.9605C71.7851 12.2986 71.7887 13.636 71.8761 14.9729C71.8891 15.155 71.9867 15.2454 72.1687 15.2442L79.7964 15.1875C79.9347 15.1875 80.0032 15.256 80.002 15.3931L80.0003 16.0066Z" fill="#070707"/>
<path d="M87.0507 25.9534C86.702 25.9628 86.4048 25.8878 86.1589 25.7282C86.1022 25.6915 86.1033 25.6567 86.1624 25.6236C86.2499 25.5763 86.2871 25.5148 86.2741 25.4392C86.2576 25.3458 86.2966 25.2997 86.3912 25.3009L96.5135 25.4498C96.6065 25.4512 96.6963 25.4159 96.7633 25.3515C96.8304 25.2871 96.8693 25.1988 96.8717 25.1058C96.8823 24.6714 96.9603 24.0863 96.6518 23.7299C96.5029 23.5597 96.3256 23.4138 96.1199 23.292C96.0691 23.2613 96.0141 23.2483 95.955 23.253C95.6205 23.2778 95.2883 23.2684 94.9585 23.2246C94.5348 23.1679 94.1093 23.2778 93.6642 23.1466C93.6087 23.1301 93.5525 23.1307 93.4958 23.1484C93.2901 23.2134 93.0791 23.2471 92.8628 23.2495C92.0401 23.2601 91.218 23.2613 90.3965 23.253C90.0295 23.2512 89.4798 23.1395 88.971 23.2353C88.9161 23.2456 88.8593 23.2355 88.8114 23.2069C88.1784 22.8417 88.2387 21.9569 88.2954 21.2956C88.3403 20.7802 88.3539 20.3588 88.3362 20.0314C88.2558 18.4711 88.2257 16.909 88.2458 15.3452C88.2741 13.162 88.3137 11.042 88.3646 8.98527C88.3665 8.90074 88.3517 8.81667 88.321 8.73786C88.2904 8.65905 88.2446 8.58705 88.1861 8.52596C88.1277 8.46488 88.0578 8.41591 87.9804 8.38185C87.903 8.34779 87.8197 8.32931 87.7351 8.32747L85.2582 8.27073C85.2247 8.27001 85.1914 8.27603 85.1603 8.28843C85.1292 8.30083 85.101 8.31934 85.0773 8.34287C85.0536 8.36639 85.0349 8.39444 85.0225 8.42531C85.01 8.45618 85.0039 8.48924 85.0046 8.5225L85.1181 14.4782C85.1193 14.5086 85.1132 14.5395 85.1004 14.5686C85.0141 14.7648 84.9751 14.9049 84.9834 14.9888C85.0507 15.6218 84.9124 16.2583 84.9461 16.8523C84.9851 17.5379 84.968 18.321 84.8947 19.2016C84.8214 20.0692 84.8474 21.1035 84.9727 22.3044C85.046 22.9947 85.0082 23.6785 84.8592 24.3558C84.8451 24.4185 84.809 24.4634 84.7511 24.4906C84.6672 24.5308 84.614 24.5952 84.5915 24.6838C84.575 24.7465 84.5844 24.8038 84.6199 24.8558C84.6423 24.8878 84.6488 24.9238 84.6394 24.964C84.6323 24.9971 84.6252 25.0119 84.6181 25.0083L84.5738 24.9835C84.5301 24.9599 84.5052 24.9729 84.4993 25.0225L84.3965 25.8771L84.4 7.89662C84.4 7.75004 84.4733 7.67676 84.6199 7.67676H88.783C88.8409 7.67676 88.8699 7.70572 88.8699 7.76364L88.8734 22.4995C88.8734 22.659 88.9532 22.7388 89.1128 22.7388L97.3451 22.714C97.3678 22.7138 97.3904 22.718 97.4114 22.7266C97.4325 22.7351 97.4517 22.7477 97.4678 22.7637C97.484 22.7797 97.4968 22.7988 97.5056 22.8198C97.5143 22.8407 97.5188 22.8632 97.5188 22.886L97.5135 25.9409C97.5135 25.9553 97.5106 25.9695 97.505 25.9827C97.4994 25.996 97.4911 26.008 97.4807 26.0181C97.4703 26.0281 97.458 26.0361 97.4444 26.0414C97.4309 26.0467 97.4164 26.0493 97.4018 26.0491L87.0507 25.9534Z" fill="#070707"/>
<path d="M104.42 22.6909C104.452 22.7151 104.491 22.7282 104.532 22.7282L112.665 22.7211C112.733 22.7211 112.768 22.7554 112.768 22.8239V25.9711C112.768 26.0526 112.727 26.0928 112.645 26.0917L99.9998 26.0739C99.9405 26.0739 99.8837 26.0504 99.8418 26.0085C99.7999 25.9666 99.7764 25.9098 99.7764 25.8505L99.7799 7.78669C99.7799 7.7134 99.8166 7.67676 99.8898 7.67676H104.209C104.274 7.67676 104.307 7.70926 104.307 7.77428C104.303 12.6478 104.299 17.5207 104.296 22.3931C104.296 22.5278 104.337 22.6271 104.42 22.6909ZM105.067 23.1342C104.599 23.3789 104.103 23.2388 103.819 22.8434C103.682 22.6519 103.612 22.3476 103.61 21.9303C103.594 19.2441 103.684 16.4622 103.658 13.8842C103.642 12.276 103.537 10.6555 103.661 9.05264C103.68 8.8186 103.613 8.61766 103.461 8.44981C103.447 8.43417 103.43 8.42154 103.411 8.4127C103.392 8.40386 103.372 8.39899 103.351 8.39839L100.647 8.31506C100.576 8.31312 100.506 8.33921 100.454 8.38767C100.402 8.43613 100.371 8.50305 100.369 8.57392C100.187 12.6827 100.163 16.7867 100.299 20.886C100.36 22.6697 100.384 24.1638 100.372 25.3682C100.371 25.4238 100.398 25.4498 100.454 25.4463C101.733 25.3387 103.011 25.3121 104.289 25.3665C105.808 25.4327 106.822 25.4616 107.331 25.4534C108.836 25.4297 110.361 25.3878 111.908 25.3275C111.943 25.3264 111.977 25.3182 112.009 25.3034C112.04 25.2885 112.069 25.2674 112.092 25.2412C112.115 25.215 112.133 25.1844 112.145 25.151C112.156 25.1177 112.16 25.0824 112.158 25.0473L112.064 23.8257C112.059 23.7701 112.032 23.7288 111.984 23.7016C111.59 23.4829 111.304 23.373 111.124 23.3718C109.943 23.3671 108.761 23.3635 107.578 23.3612C107.246 23.3612 106.877 23.3174 106.473 23.2299C106.088 23.1466 105.372 22.9764 105.067 23.1342Z" fill="#070707"/>
<path d="M127.315 7.81863C127.21 7.88719 127.11 7.94984 127.014 8.00657C126.913 8.06686 126.803 8.09818 126.684 8.10055C125.847 8.11118 125.011 8.12832 124.175 8.15196C123.815 8.1626 123.333 8.20338 122.73 8.27431C122.153 8.34286 121.669 8.36769 121.276 8.34877C119.539 8.26603 117.83 8.24771 116.15 8.29381C116.073 8.29566 116 8.32786 115.946 8.38352C115.892 8.43918 115.861 8.51389 115.861 8.59168L115.865 25.2849C115.865 25.3724 115.906 25.4049 115.989 25.3825L116.331 25.292C116.341 25.2897 116.351 25.2885 116.361 25.2885C120.107 25.3925 123.853 25.4215 127.599 25.3754C127.654 25.3747 127.708 25.363 127.758 25.3408C127.808 25.3187 127.854 25.2866 127.891 25.2465C127.928 25.2064 127.957 25.1591 127.976 25.1075C127.995 25.0559 128.003 25.0011 128 24.9463L127.939 23.9303C127.936 23.8604 127.905 23.7945 127.855 23.7464C127.804 23.6982 127.736 23.6714 127.666 23.6715C127.115 23.6697 126.579 23.5367 126.055 23.5456C124.199 23.5728 122.342 23.5793 120.484 23.5651C119.737 23.5598 119.165 23.4374 119.048 22.6342C118.952 21.977 118.891 21.1531 118.867 20.1626C118.847 19.3807 119.021 18.6147 119.145 17.8612C119.192 17.5775 119.36 17.4339 119.647 17.4303L121.2 17.4126C121.256 17.4114 121.308 17.4232 121.358 17.4481C121.514 17.5273 121.655 17.6248 121.782 17.7406C121.823 17.7784 121.871 17.8044 121.927 17.8186L122.475 17.9569C122.615 17.9936 122.614 18.0213 122.469 18.0403L122.078 18.0935L119.987 18.12C119.911 18.1214 119.839 18.1504 119.783 18.2017C119.727 18.253 119.692 18.323 119.684 18.3984C119.537 19.7459 119.498 21.107 119.567 22.4818C119.581 22.7832 119.737 22.9333 120.035 22.9321C122.876 22.925 125.716 22.9215 128.556 22.9215C128.621 22.9215 128.654 22.954 128.654 23.019L128.652 25.7388C128.652 25.9729 128.535 26.0899 128.299 26.0899L115.324 26.0917C115.273 26.0917 115.248 26.0663 115.248 26.0154L115.246 7.76367C115.246 7.75117 115.249 7.73881 115.254 7.72729C115.258 7.71577 115.266 7.70533 115.275 7.69658C115.284 7.68783 115.295 7.68095 115.306 7.67633C115.318 7.67172 115.331 7.66946 115.344 7.66969L127.315 7.81863Z" fill="#070707"/>
<path d="M127.315 7.81876L128.368 7.80812C128.405 7.80761 128.441 7.82142 128.468 7.8466C128.495 7.87178 128.511 7.90633 128.512 7.94287L128.631 10.5581C128.632 10.5791 128.629 10.6001 128.621 10.6198C128.614 10.6394 128.603 10.6574 128.588 10.6725C128.574 10.6876 128.556 10.6996 128.537 10.7076C128.518 10.7157 128.497 10.7197 128.477 10.7195L119.826 10.6982C119.799 10.698 119.773 10.703 119.748 10.713C119.724 10.7231 119.701 10.7379 119.682 10.7567C119.663 10.7754 119.648 10.7978 119.638 10.8224C119.628 10.8471 119.622 10.8735 119.622 10.9003L119.615 14.9251C119.615 14.9657 119.622 15.0059 119.638 15.0435C119.654 15.081 119.676 15.1151 119.705 15.1438C119.734 15.1725 119.768 15.1952 119.806 15.2106C119.844 15.2261 119.884 15.2339 119.925 15.2337L127.689 15.1929C127.713 15.1929 127.737 15.1976 127.759 15.2068C127.781 15.2159 127.802 15.2294 127.818 15.2464C127.835 15.2633 127.849 15.2835 127.858 15.3056C127.867 15.3278 127.872 15.3515 127.872 15.3755L127.876 17.8312C127.876 17.9588 127.812 18.0232 127.684 18.0244L122.078 18.0936L122.469 18.0404C122.614 18.0215 122.615 17.9937 122.475 17.9571L121.927 17.8188C121.871 17.8046 121.823 17.7786 121.782 17.7407C121.655 17.6249 121.514 17.5274 121.358 17.4482C121.308 17.4234 121.256 17.4115 121.2 17.4127L119.647 17.4305C119.36 17.434 119.192 17.5776 119.145 17.8613C119.021 18.6149 118.847 19.3808 118.867 20.1627C118.891 21.1533 118.952 21.9772 119.047 22.6344C119.165 23.4376 119.737 23.5599 120.484 23.5652C122.342 23.5794 124.199 23.5729 126.055 23.5457C126.579 23.5368 127.115 23.6698 127.666 23.6716C127.736 23.6715 127.804 23.6983 127.855 23.7465C127.905 23.7947 127.936 23.8605 127.939 23.9305L128 24.9464C128.003 25.0012 127.995 25.056 127.976 25.1076C127.957 25.1592 127.928 25.2065 127.891 25.2466C127.854 25.2867 127.808 25.3188 127.758 25.341C127.708 25.3631 127.654 25.3749 127.599 25.3755C123.853 25.4216 120.107 25.3926 116.361 25.2886C116.351 25.2886 116.341 25.2898 116.331 25.2922L115.989 25.3826C115.906 25.405 115.865 25.3725 115.865 25.2851L115.861 8.59181C115.861 8.51402 115.892 8.43931 115.946 8.38365C116 8.32798 116.073 8.29579 116.15 8.29394C117.83 8.24784 119.539 8.26616 121.276 8.3489C121.669 8.36781 122.153 8.34299 122.73 8.27443C123.333 8.20351 123.815 8.16273 124.175 8.15209C125.011 8.12845 125.847 8.11131 126.684 8.10067C126.803 8.09831 126.913 8.06698 127.014 8.0067C127.11 7.94996 127.21 7.88732 127.315 7.81876Z" fill="#070707"/>
<path d="M147.867 24.8277L148.349 25.9695C148.381 26.0451 148.356 26.08 148.275 26.0741L147.179 25.9961C147.281 25.9382 147.177 25.8743 146.867 25.8046C146.808 25.7916 146.805 25.7709 146.858 25.7425L146.91 25.716C146.93 25.7049 146.947 25.6876 146.958 25.6665C146.969 25.6454 146.973 25.6216 146.97 25.5981C146.966 25.5747 146.956 25.5528 146.94 25.5355C146.924 25.5182 146.903 25.5063 146.879 25.5014C146.518 25.4216 146.199 25.5032 145.842 25.411C145.284 25.2691 144.746 25.2561 144.227 25.372C144.108 25.3986 143.983 25.3836 143.873 25.3293C143.764 25.2751 143.677 25.185 143.626 25.0741C143.355 24.4878 143.071 23.8749 142.775 23.2355C142.735 23.1515 142.683 23.08 142.621 23.0209C142.583 22.9855 142.557 22.9429 142.544 22.8933C142.465 22.6025 142.329 22.2579 142.135 21.8596C141.443 20.4399 140.865 19.3631 140.399 18.6291C140.113 18.1787 139.748 18.0239 139.305 18.1645C139.065 18.2414 138.881 18.4175 138.752 18.6929C138.399 19.4518 138.17 20.2053 137.704 20.9571C137.373 21.489 137.115 21.9518 136.929 22.3454C136.619 23.0014 136.284 23.6438 135.922 24.2727C135.688 24.6769 135.784 25.4074 135.062 25.3808C133.954 25.3407 133.015 25.3448 132.245 25.3933C132.18 25.3968 132.15 25.3661 132.156 25.3011C132.229 24.6149 132.84 23.9163 133.133 23.2851C133.289 22.9494 133.47 22.6243 133.677 22.3099C133.917 21.9459 134.091 21.6107 134.199 21.3046C134.359 20.8448 134.538 20.479 134.734 20.2071C135.318 19.3986 135.773 18.606 136.099 17.8294C136.422 17.0617 136.367 16.4003 136.014 15.6007C135.767 15.0416 135.59 14.6781 135.484 14.5103C135.043 13.8093 134.689 13.1811 134.42 12.6255C133.984 11.7201 133.712 11.1728 133.603 10.9837C133.142 10.187 132.688 9.41571 132.241 8.66985C132.214 8.62554 132.2 8.57469 132.2 8.52287C132.2 8.47105 132.215 8.42028 132.242 8.37612C132.269 8.33196 132.308 8.29613 132.354 8.27257C132.4 8.24901 132.452 8.23862 132.504 8.24254C133.233 8.30046 133.953 8.34715 134.663 8.38262C135.011 8.40035 135.271 8.42517 135.505 8.71772C136.034 9.38439 136.459 10.3152 136.766 10.8401C137.407 11.937 138.043 13.0357 138.674 14.1362C138.966 14.6468 139.794 15.661 140.404 14.9305C140.999 14.2201 141.384 13.518 141.56 12.8241C141.648 12.4825 141.79 12.2165 141.986 12.0262C142.249 11.7709 142.395 11.6208 142.424 11.5759C142.59 11.3064 142.716 11.0174 142.801 10.7089C142.817 10.6533 142.842 10.6037 142.878 10.5599C143.125 10.2573 143.275 9.87257 143.33 9.40566C143.37 9.0676 143.521 8.78805 143.784 8.56701C143.94 8.43581 144.176 8.35838 144.491 8.33474C144.777 8.31228 145.062 8.27446 145.346 8.22127C145.784 8.13793 146.161 8.24609 146.598 8.23368C146.667 8.23233 146.736 8.25177 146.794 8.28951C146.853 8.32724 146.899 8.38154 146.926 8.44542C146.954 8.50929 146.961 8.57983 146.948 8.64795C146.935 8.71606 146.902 8.77865 146.853 8.82765C146.833 8.84774 146.807 8.87257 146.777 8.90212C146.735 8.94231 146.706 8.98959 146.688 9.04396C146.478 9.71418 146.159 10.3259 145.732 10.8791C145.34 11.3879 145.167 11.9606 144.832 12.4979C144.626 12.8265 144.476 13.0989 144.383 13.3152C144.051 14.08 143.716 14.843 143.378 15.6042C142.849 16.7904 143.238 17.5688 143.832 18.7904C144.209 19.567 144.727 20.3649 145.078 21.044C145.739 22.3229 146.402 23.6007 147.069 24.8773C147.122 24.9778 147.228 25.0824 147.385 25.1911C147.437 25.2278 147.475 25.2165 147.5 25.1574C147.574 24.9825 147.697 24.8726 147.867 24.8277Z" fill="#070707"/>
<path d="M80 16.0067L80.007 17.7903C80.007 17.9369 79.9344 18.0096 79.789 18.0084L73.0053 17.9854L73.6347 17.9694C73.6456 17.9695 73.6563 17.9663 73.6654 17.9602C73.6745 17.9542 73.6816 17.9456 73.6858 17.9355C73.6899 17.9255 73.691 17.9144 73.6889 17.9037C73.6867 17.893 73.6815 17.8831 73.6737 17.8755L73.6276 17.8294C73.6182 17.8199 73.6158 17.8093 73.6205 17.7974C73.63 17.775 73.6394 17.7537 73.6489 17.7336C73.6619 17.71 73.656 17.6922 73.6312 17.6804C73.5047 17.6213 73.4042 17.538 73.3297 17.4304C73.2931 17.3784 73.244 17.3453 73.1826 17.3311C72.6879 17.2212 71.8351 17.1893 71.5088 17.6786C71.2624 18.0457 71.2836 19.3737 71.3138 19.8418C71.3717 20.7661 71.406 21.6916 71.4166 22.6184C71.4255 23.5297 72.1347 23.496 72.9078 23.5208C75.2068 23.5977 77.5053 23.6284 79.8031 23.613C79.8552 23.613 79.8853 23.6385 79.8936 23.6893C79.9113 23.7874 79.9781 23.8353 80.0939 23.8329C80.1242 23.8324 80.1538 23.8423 80.178 23.861C80.2021 23.8797 80.2193 23.906 80.2269 23.9357C80.2943 24.197 80.2364 24.4227 80.0531 24.613C80.0094 24.6591 79.9893 24.7141 79.9929 24.7779C80.0248 25.363 79.0673 25.2318 78.6985 25.2957C78.3947 25.3477 78.1418 25.3743 77.9397 25.3755C75.9137 25.3849 73.8877 25.4074 71.8617 25.4428C70.6187 25.4641 69.3581 25.4056 68.0957 25.3825C68.0606 25.3819 68.026 25.3742 67.9939 25.3601C67.9618 25.346 67.9328 25.3257 67.9085 25.3003C67.8843 25.2749 67.8653 25.245 67.8527 25.2122C67.8401 25.1795 67.8341 25.1446 67.8351 25.1095C67.8475 24.7691 67.9166 24.4145 67.9113 24.0847C67.8262 19.4481 68.1453 14.8311 68.0141 10.1964C68 9.68396 67.8953 9.168 67.8422 8.63432C67.8377 8.58949 67.8427 8.54422 67.8568 8.50143C67.8709 8.45864 67.8938 8.41927 67.924 8.38587C67.9542 8.35247 67.9911 8.32576 68.0323 8.30748C68.0735 8.28919 68.118 8.27973 68.1631 8.27971C71.8203 8.29625 75.5177 8.27852 79.2553 8.22651C79.6276 8.2206 79.8611 8.34826 79.9556 8.60949C80.0065 8.75016 80.0531 8.97651 80.0957 9.28857C80.13 9.54507 80.0845 9.79034 79.9592 10.0244C79.9355 10.0681 79.8989 10.0906 79.8492 10.0918L71.9858 10.2602C71.829 10.2635 71.679 10.3241 71.565 10.4302C71.451 10.5364 71.3811 10.6805 71.3687 10.8347C71.2659 12.1786 70.9202 14.1804 71.4521 15.3932C71.5975 15.7265 72.0709 15.7017 72.3865 15.723C73.0271 15.7667 73.6625 15.7348 74.2925 15.6272C74.5242 15.587 74.7334 15.5687 74.9202 15.5723C75.0608 15.5758 75.2015 15.5794 75.3421 15.5829C75.7535 15.5935 76.0762 15.6946 76.507 15.5687C76.6382 15.5297 76.8894 15.5693 77.2606 15.6875C77.3161 15.7052 77.3729 15.7094 77.4308 15.6999C78.0868 15.5989 78.7659 15.7974 79.5478 15.7567C79.6223 15.7519 79.669 15.7856 79.6879 15.8577L79.7322 16.0226C79.7511 16.0924 79.7955 16.1184 79.8652 16.1006C79.9125 16.0888 79.9574 16.0575 80 16.0067Z" fill="#070707"/>
<path d="M87.0507 25.9534L84.3965 25.8772L84.4993 25.0226C84.5052 24.9729 84.5301 24.9599 84.5738 24.9836L84.6181 25.0084C84.6252 25.0119 84.6323 24.9972 84.6394 24.9641C84.6488 24.9239 84.6423 24.8878 84.6199 24.8559C84.5844 24.8039 84.575 24.7466 84.5915 24.6839C84.614 24.5953 84.6672 24.5309 84.7511 24.4907C84.809 24.4635 84.8451 24.4186 84.8592 24.3559C85.0082 23.6786 85.046 22.9948 84.9727 22.3045C84.8474 21.1036 84.8214 20.0693 84.8947 19.2017C84.968 18.321 84.9851 17.538 84.9461 16.8524C84.9124 16.2584 85.0507 15.6219 84.9834 14.9889C84.9751 14.905 85.0141 14.7649 85.1004 14.5687C85.1132 14.5396 85.1193 14.5086 85.1181 14.4783L85.0046 8.52258C85.0039 8.48932 85.01 8.45626 85.0225 8.42539C85.0349 8.39452 85.0536 8.36647 85.0773 8.34295C85.101 8.31942 85.1292 8.30091 85.1603 8.28851C85.1914 8.27611 85.2247 8.27009 85.2582 8.27081L87.7351 8.32755C87.8197 8.32939 87.903 8.34787 87.9804 8.38193C88.0578 8.41599 88.1277 8.46496 88.1861 8.52604C88.2446 8.58713 88.2904 8.65913 88.321 8.73794C88.3517 8.81675 88.3665 8.90082 88.3646 8.98535C88.3137 11.0421 88.2741 13.1621 88.2458 15.3453C88.2257 16.9091 88.2558 18.4712 88.3362 20.0314C88.3539 20.3589 88.3403 20.7803 88.2954 21.2956C88.2387 21.957 88.1784 22.8417 88.8114 23.207C88.8593 23.2356 88.9161 23.2457 88.971 23.2353C89.4798 23.1396 90.0295 23.2513 90.3965 23.2531C91.218 23.2614 92.0401 23.2602 92.8628 23.2495C93.0791 23.2472 93.2901 23.2135 93.4958 23.1485C93.5525 23.1307 93.6087 23.1301 93.6642 23.1467C94.1093 23.2779 94.5348 23.168 94.9585 23.2247C95.2883 23.2684 95.6205 23.2779 95.955 23.2531C96.0141 23.2484 96.0691 23.2614 96.1199 23.2921C96.3256 23.4138 96.5029 23.5598 96.6518 23.73C96.9603 24.0864 96.8823 24.6715 96.8717 25.1059C96.8693 25.1989 96.8304 25.2872 96.7633 25.3516C96.6963 25.416 96.6065 25.4513 96.5135 25.4499L86.3912 25.301C86.2966 25.2998 86.2576 25.3459 86.2741 25.4392C86.2871 25.5149 86.2499 25.5764 86.1624 25.6236C86.1033 25.6567 86.1022 25.6916 86.1589 25.7283C86.4048 25.8878 86.702 25.9629 87.0507 25.9534Z" fill="#070707"/>
<path d="M58.9006 20.8933C59.0424 21.0635 59.1299 21.1084 59.163 21.028C59.2327 21.0564 59.3491 21.0416 59.5123 20.9837C59.5569 20.9678 59.5941 20.9363 59.6169 20.8951C59.7847 20.5783 59.8704 20.1912 59.874 19.7337C59.9047 16.2018 59.8828 12.6705 59.8084 9.13975C59.8036 8.91398 59.8214 8.71008 59.8616 8.52804C59.8756 8.46385 59.9136 8.40736 59.9678 8.36988C60.0221 8.3324 60.0886 8.3167 60.1541 8.32592C60.7428 8.40748 61.332 8.40393 61.9218 8.31528C62.6045 8.21067 62.4449 9.24967 62.4484 9.62733C62.4934 14.8011 62.5075 19.9553 62.491 25.0901C62.4909 25.1443 62.4796 25.1978 62.458 25.2475C62.4364 25.2972 62.4049 25.3419 62.3654 25.3789C62.3259 25.416 62.2792 25.4445 62.2282 25.4628C62.1772 25.4812 62.1231 25.4889 62.069 25.4855L57.5938 25.2053C57.5001 25.1989 57.4103 25.1658 57.3349 25.1098C57.2594 25.0539 57.2016 24.9775 57.1683 24.8897C57.0134 24.4749 56.822 24.0328 56.5938 23.5635C56.387 23.138 56.202 22.7048 56.0389 22.2639C55.8604 21.7828 55.6724 21.3513 55.475 20.9695C55.1464 20.3348 54.8444 19.6876 54.569 19.028C54.4437 18.729 54.225 18.2645 53.913 17.6344C53.6848 17.1711 53.4928 16.6923 53.3367 16.1983C53.1937 15.7432 53.0306 15.3425 52.8474 14.9961C52.5329 14.4004 52.2451 13.7916 51.9839 13.1699C51.8456 12.8377 51.608 12.6256 51.2711 12.5334C51.2431 12.5256 51.2135 12.5266 51.1862 12.5361C51.1589 12.5456 51.1354 12.5632 51.1186 12.5866C51.0844 12.635 51.0761 12.6988 51.0938 12.778C51.0099 12.7379 50.9508 12.7396 50.9165 12.7834C50.8941 12.7633 50.874 12.7195 50.8562 12.6522C50.8397 12.5907 50.7995 12.5665 50.7357 12.5795C50.5264 12.6238 50.3509 12.8029 50.319 13.028C50.241 13.5812 50.2103 14.0877 50.2268 14.5475C50.358 18.2621 50.2711 21.5848 50.3119 25.1805C50.3124 25.2249 50.3021 25.2686 50.2821 25.3082C50.2621 25.3477 50.2329 25.3819 50.1969 25.4078C50.1609 25.4337 50.1193 25.4506 50.0754 25.457C50.0315 25.4634 49.9868 25.4592 49.9449 25.4447C49.2416 25.2036 48.5353 25.1799 47.8261 25.3738C47.7929 25.3829 47.758 25.3844 47.7242 25.3781C47.6903 25.3718 47.6583 25.3579 47.6306 25.3374C47.603 25.3169 47.5803 25.2903 47.5644 25.2598C47.5485 25.2292 47.5398 25.1955 47.5389 25.161C47.4159 20.8726 47.4142 16.5665 47.5335 12.2426C47.5678 11.0275 47.5507 9.82887 47.4821 8.64684C47.4703 8.4388 47.5684 8.32946 47.7764 8.31882C49.2043 8.24672 50.6476 8.2745 52.1062 8.40216C52.4147 8.42934 52.6695 8.65866 52.8704 9.0901C53.5182 10.4884 54.1387 11.8986 54.7321 13.3206C54.8574 13.6232 55.0838 14.0877 55.4112 14.7142C55.7357 15.3348 55.9573 15.9731 56.2924 16.5972C56.6754 17.3088 57.0075 18.1161 57.2889 19.0192C57.413 19.4163 58.1328 20.9039 58.6222 21.0174C58.751 21.047 58.8438 21.0056 58.9006 20.8933Z" fill="#070707"/>
<path d="M105.068 23.1344C105.373 22.9766 106.089 23.1468 106.474 23.2302C106.878 23.3177 107.246 23.3614 107.578 23.3614C108.762 23.3638 109.944 23.3673 111.125 23.372C111.304 23.3732 111.591 23.4831 111.984 23.7018C112.033 23.729 112.06 23.7704 112.064 23.8259L112.158 25.0476C112.161 25.0827 112.156 25.1179 112.145 25.1513C112.134 25.1846 112.116 25.2153 112.093 25.2415C112.069 25.2676 112.041 25.2888 112.009 25.3036C111.978 25.3184 111.943 25.3266 111.908 25.3277C110.362 25.388 108.837 25.4299 107.332 25.4536C106.823 25.4619 105.808 25.4329 104.289 25.3667C103.012 25.3123 101.733 25.3389 100.454 25.4465C100.399 25.45 100.372 25.424 100.373 25.3685C100.385 24.164 100.36 22.6699 100.3 20.8862C100.164 16.7869 100.187 12.6829 100.369 8.57415C100.372 8.50328 100.403 8.43636 100.455 8.3879C100.507 8.33944 100.576 8.31335 100.648 8.31529L103.351 8.39862C103.372 8.39922 103.393 8.40409 103.412 8.41293C103.431 8.42178 103.447 8.4344 103.461 8.45004C103.614 8.61789 103.681 8.81883 103.662 9.05288C103.538 10.6557 103.642 12.2763 103.658 13.8844C103.685 16.4625 103.594 19.2444 103.61 21.9305C103.613 22.3478 103.682 22.6522 103.82 22.8437C104.103 23.239 104.6 23.3791 105.068 23.1344Z" fill="#070707"/>
</g>
<defs>
<clipPath id="clip0_193_522">
<rect width="150" height="31.0714" fill="white" transform="translate(0 0.464355)"/>
</clipPath>
</defs>
</svg>
